<?xml version="1.0" encoding="utf-8"?>
<!-- Generator: Adobe Illustrator 19.1.0, SVG Export Plug-In . SVG Version: 6.00 Build 0)  -->
<svg version="1.1" id="Capa_1" xmlns="http://www.w3.org/2000/svg" xmlns:xlink="http://www.w3.org/1999/xlink" x="0px" y="0px"
	 viewBox="0 0 815 573" style="enable-background:new 0 0 815 573;" xml:space="preserve">
<style type="text/css">
	.st0{opacity:0.6;}
	.st1{fill:#FFFFFF;}
	.st2{clip-path:url(#SVGID_2_);fill:url(#SVGID_3_);}
	.st3{clip-path:url(#SVGID_5_);fill:url(#SVGID_6_);}
	.st4{clip-path:url(#SVGID_8_);fill:url(#SVGID_9_);}
	.st5{clip-path:url(#SVGID_11_);fill:url(#SVGID_12_);}
	.st6{clip-path:url(#SVGID_14_);fill:url(#SVGID_15_);}
	.st7{clip-path:url(#SVGID_17_);fill:url(#SVGID_18_);}
	.st8{clip-path:url(#SVGID_20_);fill:url(#SVGID_21_);}
</style>
<g>
	<g class="st0">
		<g>
			<path class="st1" d="M76.4,443c0-2,0.1-3.7,0.1-5.1c0.1-1.4,0.3-3.2,0.6-5.4c0.3-2.3,0.8-4.2,1.4-5.8c0.6-1.6,1.5-3.5,2.7-5.6
				c1.2-2.1,2.7-3.8,4.4-5.3c1.7-1.5,3.9-2.9,6.6-4.3c2.7-1.4,5.6-2.5,9-3.2c5-1,10.3-1.5,16-1.5c3.4,0,6.8,0.2,10.2,0.5
				c3.4,0.3,5.9,0.6,7.4,0.8c1.5,0.3,4,0.6,7.3,1.2v11.2c-0.3-0.1-1.3-0.3-2.9-0.5s-2.9-0.5-3.6-0.6l-3.8-0.5
				c-1.8-0.3-3.2-0.5-4.5-0.6s-2.9-0.2-4.7-0.3c-1.8-0.1-3.6-0.1-5.4-0.1c-5.3,0-9.5,0.4-12.9,1.2c-2,0.5-3.8,1.1-5.3,1.9
				c-1.6,0.8-2.9,1.8-3.9,2.7c-1,1-1.9,2.1-2.6,3.6s-1.2,2.7-1.6,3.9c-0.3,1.2-0.6,2.5-0.8,4.2c-0.2,1.6-0.3,2.9-0.4,3.9
				c-0.1,1-0.1,2.1-0.1,3.6V467c0,1.4,0,2.6,0.1,3.6c0.1,1,0.2,2.3,0.4,3.9c0.2,1.6,0.5,3,0.8,4.2c0.3,1.2,0.8,2.5,1.6,3.9
				c0.7,1.4,1.6,2.6,2.7,3.6c1,1,2.3,1.9,3.9,2.7c1.6,0.8,3.4,1.5,5.4,1.9c3.8,0.8,8,1.3,12.9,1.3c2.1,0.1,4.2,0,6.2-0.1
				c2-0.1,4-0.3,6-0.6c2-0.3,3.6-0.5,4.6-0.6c1-0.1,2.6-0.4,4.7-0.8c2.1-0.4,3.3-0.6,3.5-0.6v11c-0.2,0.1-1.1,0.3-2.7,0.6
				s-2.7,0.5-3.2,0.6l-3,0.5c-1.5,0.3-2.7,0.4-3.6,0.5s-2.1,0.2-3.6,0.3c-1.5,0.1-2.9,0.2-4.3,0.3c-1.4,0.1-2.9,0.1-4.3,0.1
				c-5.6,0-10.9-0.5-16-1.6c-3.3-0.8-6.3-1.9-9-3.2c-2.7-1.4-4.8-2.8-6.5-4.3s-3.1-3.2-4.3-5.3c-1.2-2.1-2.1-4-2.7-5.6
				c-0.6-1.6-1-3.6-1.4-5.8c-0.3-2.3-0.5-4.1-0.6-5.4s-0.1-3-0.1-5.1L76.4,443z"/>
			<path class="st1" d="M155.6,444.1c0-2,0.1-3.8,0.1-5.2c0.1-1.4,0.3-3.3,0.6-5.6s0.8-4.3,1.4-6c0.6-1.7,1.5-3.6,2.7-5.8
				c1.2-2.1,2.6-4,4.2-5.4s3.7-2.9,6.2-4.3s5.4-2.5,8.6-3.2c5.9-1.4,11.7-2,17.5-2s11.6,0.6,17.5,2c3.2,0.8,6,1.9,8.6,3.2
				s4.6,2.8,6.2,4.3c1.6,1.6,3,3.4,4.2,5.5c1.2,2.1,2.1,4,2.7,5.7c0.6,1.7,1,3.7,1.4,6c0.3,2.3,0.5,4.2,0.6,5.6
				c0.1,1.4,0.1,3.1,0.1,5.1v21.4c0,2,0,3.7-0.1,5.1c-0.1,1.4-0.3,3.3-0.6,5.6s-0.8,4.3-1.4,6s-1.4,3.6-2.6,5.7s-2.5,4-4.2,5.5
				s-3.7,3-6.2,4.3c-2.5,1.4-5.4,2.5-8.6,3.2c-5.8,1.3-11.6,1.9-17.5,1.9c-6,0-11.8-0.6-17.6-1.9c-3.2-0.8-6-1.9-8.6-3.2
				c-2.5-1.4-4.6-2.8-6.2-4.3c-1.6-1.5-3-3.3-4.2-5.4s-2-4.1-2.6-5.8c-0.6-1.7-1-3.7-1.4-6c-0.3-2.3-0.5-4.2-0.6-5.6
				c-0.1-1.4-0.1-3.1-0.1-5.1L155.6,444.1z M168.4,465.9c0,5.1,0.6,9.4,1.8,12.8c1.2,3.4,3,6.2,5.4,8.1s5.4,3.3,8.7,4.1
				s7.4,1.2,12.3,1.2c10.4,0,17.7-1.9,21.9-5.8c4.2-3.9,6.2-10.8,6.2-20.6v-21.4c-0.1-5.3-0.6-9.7-1.7-13.1c-1-3.4-2.7-6.2-5.1-8.1
				c-2.4-1.9-5.3-3.3-8.6-4.1s-7.5-1.2-12.6-1.2c-10.4,0-17.7,1.9-21.8,5.8c-4.1,3.8-6.2,10.6-6.2,20.4v21.7L168.4,465.9z"/>
			<path class="st1" d="M257.2,407.5h16.1l39.7,74.4h0.5v-74.4h13v94.4h-15L270.8,427h-0.5v74.9h-13V407.5z"/>
			<path class="st1" d="M340.1,407.5h70.4v11.3h-28.7v83.2h-13v-83.2h-28.7V407.5z"/>
			<path class="st1" d="M440.6,407.5h16.9l33.9,94.4h-13.7l-10.2-29.4h-37l-10.1,29.4h-13.7L440.6,407.5z M463.5,461.1l-14.2-41.6
				h-0.5l-14.2,41.6H463.5z"/>
			<path class="st1" d="M501,443c0-2,0.1-3.7,0.1-5.1c0.1-1.4,0.3-3.2,0.6-5.4c0.3-2.3,0.8-4.2,1.4-5.8c0.6-1.6,1.5-3.5,2.7-5.6
				c1.2-2.1,2.7-3.8,4.4-5.3c1.7-1.5,3.9-2.9,6.6-4.3s5.6-2.5,9-3.2c5-1,10.3-1.5,16-1.5c3.4,0,6.8,0.2,10.2,0.5
				c3.4,0.3,5.9,0.6,7.4,0.8c1.5,0.3,4,0.6,7.3,1.2v11.2c-0.3-0.1-1.3-0.3-2.9-0.5c-1.6-0.3-2.9-0.5-3.6-0.6l-3.8-0.5
				c-1.8-0.3-3.2-0.5-4.5-0.6c-1.3-0.1-2.9-0.2-4.7-0.3c-1.8-0.1-3.6-0.1-5.4-0.1c-5.3,0-9.5,0.4-12.9,1.2c-2,0.5-3.8,1.1-5.3,1.9
				c-1.6,0.8-2.9,1.8-3.9,2.7c-1,1-1.9,2.1-2.6,3.6c-0.7,1.4-1.2,2.7-1.6,3.9c-0.3,1.2-0.6,2.5-0.8,4.2c-0.2,1.6-0.3,2.9-0.4,3.9
				c-0.1,1-0.1,2.1-0.1,3.6V467c0,1.4,0,2.6,0.1,3.6c0.1,1,0.2,2.3,0.4,3.9c0.2,1.6,0.5,3,0.8,4.2c0.3,1.2,0.8,2.5,1.6,3.9
				c0.7,1.4,1.6,2.6,2.7,3.6c1,1,2.3,1.9,3.9,2.7c1.6,0.8,3.4,1.5,5.4,1.9c3.8,0.8,8,1.3,12.9,1.3c2.1,0.1,4.2,0,6.2-0.1
				c2-0.1,4-0.3,6-0.6c2-0.3,3.6-0.5,4.6-0.6s2.6-0.4,4.7-0.8c2.1-0.4,3.3-0.6,3.5-0.6v11c-0.2,0.1-1.1,0.3-2.7,0.6
				c-1.6,0.3-2.7,0.5-3.2,0.6l-3,0.5c-1.5,0.3-2.7,0.4-3.6,0.5c-0.9,0.1-2.1,0.2-3.6,0.3c-1.5,0.1-2.9,0.2-4.3,0.3
				c-1.4,0.1-2.9,0.1-4.3,0.1c-5.6,0-10.9-0.5-16-1.6c-3.3-0.8-6.3-1.9-9-3.2s-4.8-2.8-6.5-4.3s-3.1-3.2-4.3-5.3
				c-1.2-2.1-2.1-4-2.7-5.6c-0.6-1.6-1-3.6-1.4-5.8s-0.5-4.1-0.6-5.4s-0.1-3-0.1-5.1L501,443z"/>
			<path class="st1" d="M575.9,407.5h70.4v11.3h-28.7v83.2h-13v-83.2h-28.7V407.5z"/>
			<path class="st1" d="M655.7,444.1c0-2,0.1-3.8,0.1-5.2c0.1-1.4,0.3-3.3,0.6-5.6c0.3-2.3,0.8-4.3,1.4-6c0.6-1.7,1.5-3.6,2.7-5.8
				c1.2-2.1,2.6-4,4.2-5.4c1.6-1.5,3.7-2.9,6.2-4.3c2.5-1.4,5.4-2.5,8.6-3.2c5.9-1.4,11.7-2,17.5-2c5.8,0,11.6,0.6,17.5,2
				c3.2,0.8,6,1.9,8.6,3.2c2.5,1.4,4.6,2.8,6.2,4.3c1.6,1.6,3,3.4,4.2,5.5c1.2,2.1,2.1,4,2.7,5.7c0.6,1.7,1,3.7,1.4,6
				c0.3,2.3,0.5,4.2,0.6,5.6c0.1,1.4,0.1,3.1,0.1,5.1v21.4c0,2,0,3.7-0.1,5.1c-0.1,1.4-0.3,3.3-0.6,5.6s-0.8,4.3-1.4,6
				s-1.4,3.6-2.6,5.7c-1.2,2.1-2.5,4-4.2,5.5c-1.6,1.6-3.7,3-6.2,4.3c-2.5,1.4-5.4,2.5-8.6,3.2c-5.8,1.3-11.6,1.9-17.5,1.9
				c-6,0-11.8-0.6-17.6-1.9c-3.2-0.8-6-1.9-8.6-3.2c-2.5-1.4-4.6-2.8-6.2-4.3c-1.6-1.5-3-3.3-4.2-5.4c-1.2-2.1-2-4.1-2.6-5.8
				c-0.6-1.7-1-3.7-1.4-6c-0.3-2.3-0.5-4.2-0.6-5.6c-0.1-1.4-0.1-3.1-0.1-5.1L655.7,444.1z M668.4,465.9c0,5.1,0.6,9.4,1.8,12.8
				c1.2,3.4,3,6.2,5.4,8.1s5.4,3.3,8.7,4.1c3.3,0.8,7.4,1.2,12.3,1.2c10.4,0,17.7-1.9,21.9-5.8c4.2-3.9,6.2-10.8,6.2-20.6v-21.4
				c-0.1-5.3-0.6-9.7-1.7-13.1c-1-3.4-2.7-6.2-5.1-8.1c-2.4-1.9-5.3-3.3-8.6-4.1c-3.3-0.8-7.5-1.2-12.6-1.2
				c-10.4,0-17.7,1.9-21.8,5.8c-4.1,3.8-6.2,10.6-6.2,20.4v21.7L668.4,465.9z"/>
		</g>
	</g>
	<g>
		<g>
			<defs>
				<path id="SVGID_1_" d="M407.5,237.1l-68.9-39.8v-79.6l68.9-39.8l68.9,39.8v79.6L407.5,237.1z M348.5,191.5l59,34.1l59-34.1
					v-68.1l-59-34.1l-59,34.1V191.5z"/>
			</defs>
			<clipPath id="SVGID_2_">
				<use xlink:href="#SVGID_1_"  style="overflow:visible;"/>
			</clipPath>
			
				<linearGradient id="SVGID_3_" gradientUnits="userSpaceOnUse" x1="6.1194" y1="574.9051" x2="8.6052" y2="574.9051" gradientTransform="matrix(-96 101 101 96 -56952.5859 -55775.4883)">
				<stop  offset="0" style="stop-color:#DA8956"/>
				<stop  offset="0.1346" style="stop-color:#D58554"/>
				<stop  offset="0.2952" style="stop-color:#C67A4D"/>
				<stop  offset="0.4692" style="stop-color:#AE6843"/>
				<stop  offset="0.6525" style="stop-color:#8D4F34"/>
				<stop  offset="0.8414" style="stop-color:#622F20"/>
				<stop  offset="0.8813" style="stop-color:#58271C"/>
				<stop  offset="1" style="stop-color:#58271C"/>
			</linearGradient>
			<polygon class="st2" points="556,153.4 411,305.9 259.1,161.5 404,9 			"/>
		</g>
		<g>
			<defs>
				<polygon id="SVGID_4_" points="408,163.2 342.5,125.4 347.5,116.8 408,151.7 467.5,117.4 472.5,126 				"/>
			</defs>
			<clipPath id="SVGID_5_">
				<use xlink:href="#SVGID_4_"  style="overflow:visible;"/>
			</clipPath>
			
				<linearGradient id="SVGID_6_" gradientUnits="userSpaceOnUse" x1="6.1194" y1="574.8853" x2="8.6052" y2="574.8853" gradientTransform="matrix(-96 101 101 96 -56959.3125 -55781.8828)">
				<stop  offset="0" style="stop-color:#DA8956"/>
				<stop  offset="0.1346" style="stop-color:#D58554"/>
				<stop  offset="0.2952" style="stop-color:#C67A4D"/>
				<stop  offset="0.4692" style="stop-color:#AE6843"/>
				<stop  offset="0.6525" style="stop-color:#8D4F34"/>
				<stop  offset="0.8414" style="stop-color:#622F20"/>
				<stop  offset="0.8813" style="stop-color:#58271C"/>
				<stop  offset="1" style="stop-color:#58271C"/>
			</linearGradient>
			<polygon class="st3" points="495.7,138.8 410.8,228.1 319.3,141.2 404.2,51.8 			"/>
		</g>
		<g>
			<defs>
				<polygon id="SVGID_7_" points="407.8,134 367.1,110.6 372.1,101.9 407.8,122.6 442.9,102.3 447.9,110.9 				"/>
			</defs>
			<clipPath id="SVGID_8_">
				<use xlink:href="#SVGID_7_"  style="overflow:visible;"/>
			</clipPath>
			
				<linearGradient id="SVGID_9_" gradientUnits="userSpaceOnUse" x1="6.1194" y1="574.8063" x2="8.6052" y2="574.8063" gradientTransform="matrix(-96 101 101 96 -56962.3125 -55784.7344)">
				<stop  offset="0" style="stop-color:#DA8956"/>
				<stop  offset="0.1346" style="stop-color:#D58554"/>
				<stop  offset="0.2952" style="stop-color:#C67A4D"/>
				<stop  offset="0.4692" style="stop-color:#AE6843"/>
				<stop  offset="0.6525" style="stop-color:#8D4F34"/>
				<stop  offset="0.8414" style="stop-color:#622F20"/>
				<stop  offset="0.8813" style="stop-color:#58271C"/>
				<stop  offset="1" style="stop-color:#58271C"/>
			</linearGradient>
			<polygon class="st4" points="463.9,117.2 409.5,174.4 351.1,118.8 405.5,61.6 			"/>
		</g>
		<g>
			<defs>
				<rect id="SVGID_10_" x="402.5" y="83.6" width="9.9" height="217.9"/>
			</defs>
			<clipPath id="SVGID_11_">
				<use xlink:href="#SVGID_10_"  style="overflow:visible;"/>
			</clipPath>
			
				<linearGradient id="SVGID_12_" gradientUnits="userSpaceOnUse" x1="6.1194" y1="575.0087" x2="8.6052" y2="575.0087" gradientTransform="matrix(-96 101 101 96 -56945.5391 -55768.793)">
				<stop  offset="0" style="stop-color:#DA8956"/>
				<stop  offset="0.1346" style="stop-color:#D58554"/>
				<stop  offset="0.2952" style="stop-color:#C67A4D"/>
				<stop  offset="0.4692" style="stop-color:#AE6843"/>
				<stop  offset="0.6525" style="stop-color:#8D4F34"/>
				<stop  offset="0.8414" style="stop-color:#622F20"/>
				<stop  offset="0.8813" style="stop-color:#58271C"/>
				<stop  offset="1" style="stop-color:#58271C"/>
			</linearGradient>
			<polygon class="st5" points="521.3,187 407.8,306.4 293.7,198.1 407.2,78.6 			"/>
		</g>
		<g>
			<defs>
				<path id="SVGID_13_" d="M302,158.6c0-58.2,47.3-105.6,105.5-105.6S513,100.4,513,158.6c0,58.2-47.3,105.5-105.5,105.5
					S302,216.8,302,158.6 M292,158.6c0,63.7,51.8,115.5,115.5,115.5S523,222.3,523,158.6c0-63.7-51.8-115.5-115.5-115.5
					S292,94.9,292,158.6"/>
			</defs>
			<clipPath id="SVGID_14_">
				<use xlink:href="#SVGID_13_"  style="overflow:visible;"/>
			</clipPath>
			
				<linearGradient id="SVGID_15_" gradientUnits="userSpaceOnUse" x1="6.1194" y1="574.9085" x2="8.6052" y2="574.9085" gradientTransform="matrix(-96 101 101 96 -56952.3555 -55775.2695)">
				<stop  offset="0" style="stop-color:#DA8956"/>
				<stop  offset="0.1346" style="stop-color:#D58554"/>
				<stop  offset="0.2952" style="stop-color:#C67A4D"/>
				<stop  offset="0.4692" style="stop-color:#AE6843"/>
				<stop  offset="0.6525" style="stop-color:#8D4F34"/>
				<stop  offset="0.8414" style="stop-color:#622F20"/>
				<stop  offset="0.8813" style="stop-color:#58271C"/>
				<stop  offset="1" style="stop-color:#58271C"/>
			</linearGradient>
			<polygon class="st6" points="638.3,152.7 413.4,389.4 176.7,164.5 401.6,-72.2 			"/>
		</g>
		<g>
			<defs>
				<polygon id="SVGID_16_" points="427.3,176.7 427.3,188.2 427.3,188.2 474,161.3 469,152.7 				"/>
			</defs>
			<clipPath id="SVGID_17_">
				<use xlink:href="#SVGID_16_"  style="overflow:visible;"/>
			</clipPath>
			
				<linearGradient id="SVGID_18_" gradientUnits="userSpaceOnUse" x1="6.1194" y1="575.0804" x2="8.6052" y2="575.0804" gradientTransform="matrix(-96 101 101 96 -56941.1484 -55764.6211)">
				<stop  offset="0" style="stop-color:#DA8956"/>
				<stop  offset="0.1346" style="stop-color:#D58554"/>
				<stop  offset="0.2952" style="stop-color:#C67A4D"/>
				<stop  offset="0.4692" style="stop-color:#AE6843"/>
				<stop  offset="0.6525" style="stop-color:#8D4F34"/>
				<stop  offset="0.8414" style="stop-color:#622F20"/>
				<stop  offset="0.8813" style="stop-color:#58271C"/>
				<stop  offset="1" style="stop-color:#58271C"/>
			</linearGradient>
			<polygon class="st7" points="491.7,169.5 451.8,211.5 409.6,171.3 449.5,129.4 			"/>
		</g>
		<g>
			<defs>
				<polygon id="SVGID_19_" points="341,161.3 387.6,188.2 387.6,176.7 346,152.7 				"/>
			</defs>
			<clipPath id="SVGID_20_">
				<use xlink:href="#SVGID_19_"  style="overflow:visible;"/>
			</clipPath>
			
				<linearGradient id="SVGID_21_" gradientUnits="userSpaceOnUse" x1="6.1194" y1="574.804" x2="8.6052" y2="574.804" gradientTransform="matrix(-96 101 101 96 -56958.5781 -55781.1875)">
				<stop  offset="0" style="stop-color:#DA8956"/>
				<stop  offset="0.1346" style="stop-color:#D58554"/>
				<stop  offset="0.2952" style="stop-color:#C67A4D"/>
				<stop  offset="0.4692" style="stop-color:#AE6843"/>
				<stop  offset="0.6525" style="stop-color:#8D4F34"/>
				<stop  offset="0.8414" style="stop-color:#622F20"/>
				<stop  offset="0.8813" style="stop-color:#58271C"/>
				<stop  offset="1" style="stop-color:#58271C"/>
			</linearGradient>
			<polygon class="st8" points="405.3,169.5 365.5,211.4 323.3,171.3 363.1,129.4 			"/>
		</g>
	</g>
</g>
</svg>
