<?xml version="1.0" encoding="utf-8"?>
<!-- Generator: Adobe Illustrator 19.1.0, SVG Export Plug-In . SVG Version: 6.00 Build 0)  -->
<svg version="1.1" id="Capa_1" xmlns="http://www.w3.org/2000/svg" xmlns:xlink="http://www.w3.org/1999/xlink" x="0px" y="0px"
	 viewBox="0 0 815 573" style="enable-background:new 0 0 815 573;" xml:space="preserve">
<style type="text/css">
	.st0{opacity:0.6;}
	.st1{fill:#FFFFFF;}
	.st2{clip-path:url(#SVGID_2_);fill:url(#SVGID_3_);}
	.st3{clip-path:url(#SVGID_5_);fill:url(#SVGID_6_);}
	.st4{clip-path:url(#SVGID_8_);fill:url(#SVGID_9_);}
	.st5{clip-path:url(#SVGID_11_);fill:url(#SVGID_12_);}
	.st6{clip-path:url(#SVGID_14_);fill:url(#SVGID_15_);}
	.st7{clip-path:url(#SVGID_17_);fill:url(#SVGID_18_);}
	.st8{clip-path:url(#SVGID_20_);fill:url(#SVGID_21_);}
</style>
<g>
	<g class="st0">
		<g>
			<path class="st1" d="M90.1,421.8h58v11.4h-44.9v31h38.6v11.4h-38.6v41.3H90.1V421.8z"/>
			<path class="st1" d="M163.9,421.8H177v95h-13.1V421.8z"/>
			<path class="st1" d="M199.2,421.8h13.1v83.7h41.3v11.4h-54.4V421.8z"/>
			<path class="st1" d="M262.7,458.6c0-2,0.1-3.8,0.1-5.2c0.1-1.4,0.3-3.3,0.6-5.7c0.3-2.3,0.8-4.4,1.4-6.1c0.6-1.7,1.5-3.7,2.7-5.8
				c1.2-2.2,2.6-4,4.2-5.5c1.6-1.5,3.7-2.9,6.3-4.3c2.5-1.4,5.4-2.5,8.6-3.3c5.9-1.4,11.8-2,17.6-2s11.7,0.7,17.6,2
				c3.2,0.8,6.1,1.9,8.6,3.3c2.5,1.4,4.6,2.8,6.3,4.4s3,3.4,4.2,5.5c1.2,2.2,2.1,4,2.7,5.7c0.6,1.7,1,3.7,1.4,6.1
				c0.3,2.4,0.5,4.2,0.6,5.7c0.1,1.4,0.1,3.1,0.1,5.2v21.5c0,2,0,3.7-0.1,5.2c-0.1,1.4-0.3,3.3-0.6,5.7c-0.3,2.3-0.8,4.4-1.4,6.1
				s-1.4,3.6-2.6,5.7c-1.2,2.2-2.5,4-4.2,5.5c-1.6,1.6-3.7,3-6.3,4.4c-2.5,1.4-5.4,2.5-8.6,3.3c-5.8,1.3-11.7,2-17.6,2
				c-6,0-11.9-0.7-17.7-2c-3.2-0.8-6.1-1.9-8.6-3.3c-2.5-1.4-4.6-2.8-6.3-4.3c-1.6-1.5-3-3.3-4.2-5.5s-2-4.1-2.6-5.8
				c-0.6-1.7-1-3.7-1.4-6.1c-0.3-2.4-0.5-4.2-0.6-5.7c-0.1-1.4-0.1-3.1-0.1-5.2L262.7,458.6z M275.6,480.6c0,5.2,0.6,9.5,1.8,12.9
				c1.2,3.5,3,6.2,5.5,8.2c2.5,2,5.4,3.3,8.7,4.1c3.3,0.8,7.4,1.2,12.3,1.2c10.5,0,17.8-2,22-5.9c4.2-3.9,6.3-10.8,6.3-20.7v-21.5
				c-0.1-5.4-0.7-9.7-1.7-13.2c-1-3.5-2.7-6.2-5.2-8.2c-2.4-2-5.3-3.3-8.6-4.1s-7.6-1.2-12.7-1.2c-10.5,0-17.8,2-21.9,5.8
				c-4.1,3.9-6.2,10.7-6.2,20.6v21.8L275.6,480.6z"/>
			<path class="st1" d="M360.4,502.8c4.2,1.3,9.1,2.3,14.7,3.1c5.5,0.8,9.9,1.2,12.9,1.2c2.9,0,5.5-0.1,7.6-0.3
				c2.2-0.2,4.2-0.6,6.1-1.1c1.9-0.5,3.5-1.2,4.6-2.2c1.2-0.9,2.1-2.1,2.7-3.5c0.7-1.4,1-3.1,1-5c0-2.6-0.4-4.8-1.2-6.6
				c-0.8-1.8-1.8-3.2-3.1-4.3c-1.3-1.1-3.2-2.3-5.6-3.5l-18.6-9.5c-3.5-1.8-6.4-3.5-8.6-5c-2.2-1.5-4.1-3.3-5.9-5.3
				c-1.8-2-3.1-4.3-3.9-6.8c-0.8-2.5-1.2-5.4-1.2-8.7c0-4,0.5-7.5,1.5-10.4c1-2.9,2.4-5.2,4.1-7c1.8-1.8,4.1-3.3,7-4.3
				c2.9-1,6.1-1.8,9.5-2.2c3.4-0.4,7.5-0.6,12.3-0.6c3.1,0,6.9,0.3,11.5,0.7c4.6,0.5,8.6,1.2,12.1,2.2v11.8c-2.7-1-6.5-1.9-11.4-2.5
				c-4.9-0.6-8.9-0.9-12.1-0.9c-2.9,0-5.4,0.1-7.4,0.3c-2.1,0.2-4,0.6-5.9,1.2c-1.8,0.6-3.3,1.4-4.4,2.3c-1.1,1-2,2.3-2.6,3.9
				c-0.7,1.6-1,3.5-1,5.7c0,3.2,1,5.8,2.9,7.8c2,2,5.5,4.3,10.7,7l17.5,8.9c4,2,7.2,4,9.5,6.1c2.4,2,4.2,4.6,5.5,7.8
				c1.3,3.2,2,7,2,11.6c0,3.8-0.5,7-1.6,9.8c-1,2.7-2.5,5-4.4,6.7c-1.9,1.7-4.4,3.1-7.4,4.1c-3.1,1-6.3,1.8-9.8,2.2
				c-3.5,0.4-7.5,0.6-12.2,0.6c-2.9,0-7.1-0.3-12.6-1c-5.5-0.7-10.5-1.6-15.1-2.7L360.4,502.8z"/>
			<path class="st1" d="M437.6,458.6c0-2,0.1-3.8,0.1-5.2c0.1-1.4,0.3-3.3,0.6-5.7c0.3-2.3,0.8-4.4,1.4-6.1c0.6-1.7,1.5-3.7,2.7-5.8
				c1.2-2.2,2.6-4,4.2-5.5s3.7-2.9,6.3-4.3c2.5-1.4,5.4-2.5,8.6-3.3c5.9-1.4,11.8-2,17.6-2c5.8,0,11.7,0.7,17.6,2
				c3.2,0.8,6.1,1.9,8.6,3.3c2.5,1.4,4.6,2.8,6.3,4.4s3,3.4,4.2,5.5c1.2,2.2,2.1,4,2.7,5.7c0.6,1.7,1,3.7,1.4,6.1
				c0.3,2.4,0.5,4.2,0.6,5.7c0.1,1.4,0.1,3.1,0.1,5.2v21.5c0,2,0,3.7-0.1,5.2c-0.1,1.4-0.3,3.3-0.6,5.7c-0.3,2.3-0.8,4.4-1.4,6.1
				s-1.4,3.6-2.6,5.7c-1.2,2.2-2.5,4-4.2,5.5c-1.6,1.6-3.7,3-6.3,4.4c-2.5,1.4-5.4,2.5-8.6,3.3c-5.8,1.3-11.7,2-17.6,2
				c-6,0-11.9-0.7-17.7-2c-3.2-0.8-6.1-1.9-8.6-3.3c-2.5-1.4-4.6-2.8-6.3-4.3c-1.6-1.5-3-3.3-4.2-5.5s-2-4.1-2.6-5.8
				c-0.6-1.7-1-3.7-1.4-6.1c-0.3-2.4-0.5-4.2-0.6-5.7c-0.1-1.4-0.1-3.1-0.1-5.2L437.6,458.6z M450.4,480.6c0,5.2,0.6,9.5,1.8,12.9
				c1.2,3.5,3,6.2,5.5,8.2c2.5,2,5.4,3.3,8.7,4.1c3.3,0.8,7.4,1.2,12.3,1.2c10.5,0,17.8-2,22-5.9c4.2-3.9,6.3-10.8,6.3-20.7v-21.5
				c-0.1-5.4-0.7-9.7-1.7-13.2c-1-3.5-2.7-6.2-5.2-8.2s-5.3-3.3-8.6-4.1s-7.6-1.2-12.7-1.2c-10.5,0-17.8,2-21.9,5.8
				c-4.1,3.9-6.2,10.7-6.2,20.6v21.8L450.4,480.6z"/>
			<path class="st1" d="M539.8,421.8h58v11.4h-44.9v31h38.6v11.4h-38.6v41.3h-13.1V421.8z"/>
			<path class="st1" d="M613.6,421.8h13.1v95h-13.1V421.8z"/>
			<path class="st1" d="M673.8,421.8h17l34.1,95h-13.8l-10.2-29.6h-37.2l-10.1,29.6h-13.8L673.8,421.8z M696.8,475.7l-14.3-41.8H682
				l-14.3,41.8H696.8z"/>
		</g>
	</g>
	<g>
		<g>
			<defs>
				<path id="SVGID_1_" d="M402,250.2l-69.4-40.1V130L402,90l69.4,40.1v80.1L402,250.2z M342.6,204.4l59.4,34.3l59.4-34.3v-68.6
					L402,101.5l-59.4,34.3V204.4z"/>
			</defs>
			<clipPath id="SVGID_2_">
				<use xlink:href="#SVGID_1_"  style="overflow:visible;"/>
			</clipPath>
			
				<linearGradient id="SVGID_3_" gradientUnits="userSpaceOnUse" x1="6.2046" y1="574.9388" x2="8.7065" y2="574.9388" gradientTransform="matrix(-96 101 101 96 -56952.5859 -55775.4883)">
				<stop  offset="0" style="stop-color:#DA8956"/>
				<stop  offset="0.1346" style="stop-color:#D58554"/>
				<stop  offset="0.2952" style="stop-color:#C67A4D"/>
				<stop  offset="0.4692" style="stop-color:#AE6843"/>
				<stop  offset="0.6525" style="stop-color:#8D4F34"/>
				<stop  offset="0.8414" style="stop-color:#622F20"/>
				<stop  offset="0.8813" style="stop-color:#58271C"/>
				<stop  offset="1" style="stop-color:#58271C"/>
			</linearGradient>
			<polygon class="st2" points="551.4,166 405.5,319.5 252.5,174.2 398.4,20.7 			"/>
		</g>
		<g>
			<defs>
				<polygon id="SVGID_4_" points="402.5,175.9 336.5,137.8 341.5,129.1 402.5,164.3 462.4,129.7 467.4,138.4 				"/>
			</defs>
			<clipPath id="SVGID_5_">
				<use xlink:href="#SVGID_4_"  style="overflow:visible;"/>
			</clipPath>
			
				<linearGradient id="SVGID_6_" gradientUnits="userSpaceOnUse" x1="6.2046" y1="574.9183" x2="8.7065" y2="574.9183" gradientTransform="matrix(-96 101 101 96 -56959.3125 -55781.8828)">
				<stop  offset="0" style="stop-color:#DA8956"/>
				<stop  offset="0.1346" style="stop-color:#D58554"/>
				<stop  offset="0.2952" style="stop-color:#C67A4D"/>
				<stop  offset="0.4692" style="stop-color:#AE6843"/>
				<stop  offset="0.6525" style="stop-color:#8D4F34"/>
				<stop  offset="0.8414" style="stop-color:#622F20"/>
				<stop  offset="0.8813" style="stop-color:#58271C"/>
				<stop  offset="1" style="stop-color:#58271C"/>
			</linearGradient>
			<polygon class="st3" points="490.7,151.3 405.3,241.2 313.2,153.7 398.6,63.8 			"/>
		</g>
		<g>
			<defs>
				<polygon id="SVGID_7_" points="402.3,146.5 361.3,122.9 366.3,114.2 402.3,135 437.6,114.6 442.6,123.2 				"/>
			</defs>
			<clipPath id="SVGID_8_">
				<use xlink:href="#SVGID_7_"  style="overflow:visible;"/>
			</clipPath>
			
				<linearGradient id="SVGID_9_" gradientUnits="userSpaceOnUse" x1="6.2046" y1="574.8386" x2="8.7065" y2="574.8386" gradientTransform="matrix(-96 101 101 96 -56962.3125 -55784.7344)">
				<stop  offset="0" style="stop-color:#DA8956"/>
				<stop  offset="0.1346" style="stop-color:#D58554"/>
				<stop  offset="0.2952" style="stop-color:#C67A4D"/>
				<stop  offset="0.4692" style="stop-color:#AE6843"/>
				<stop  offset="0.6525" style="stop-color:#8D4F34"/>
				<stop  offset="0.8414" style="stop-color:#622F20"/>
				<stop  offset="0.8813" style="stop-color:#58271C"/>
				<stop  offset="1" style="stop-color:#58271C"/>
			</linearGradient>
			<polygon class="st4" points="458.7,129.6 404,187.1 345.2,131.2 399.9,73.6 			"/>
		</g>
		<g>
			<defs>
				<rect id="SVGID_10_" x="397" y="95.8" width="10" height="219.3"/>
			</defs>
			<clipPath id="SVGID_11_">
				<use xlink:href="#SVGID_10_"  style="overflow:visible;"/>
			</clipPath>
			
				<linearGradient id="SVGID_12_" gradientUnits="userSpaceOnUse" x1="6.2046" y1="575.0435" x2="8.7065" y2="575.0435" gradientTransform="matrix(-96 101 101 96 -56945.5391 -55768.793)">
				<stop  offset="0" style="stop-color:#DA8956"/>
				<stop  offset="0.1346" style="stop-color:#D58554"/>
				<stop  offset="0.2952" style="stop-color:#C67A4D"/>
				<stop  offset="0.4692" style="stop-color:#AE6843"/>
				<stop  offset="0.6525" style="stop-color:#8D4F34"/>
				<stop  offset="0.8414" style="stop-color:#622F20"/>
				<stop  offset="0.8813" style="stop-color:#58271C"/>
				<stop  offset="1" style="stop-color:#58271C"/>
			</linearGradient>
			<polygon class="st5" points="516.5,199.8 402.2,320.1 287.4,211 401.7,90.8 			"/>
		</g>
		<g>
			<defs>
				<path id="SVGID_13_" d="M295.7,171.3C295.7,112.7,343.4,65,402,65s106.2,47.7,106.2,106.2c0,58.6-47.7,106.2-106.2,106.2
					S295.7,229.8,295.7,171.3 M285.7,171.3c0,64.1,52.1,116.2,116.2,116.2s116.2-52.1,116.2-116.2C518.2,107.2,466,55,402,55
					S285.7,107.2,285.7,171.3"/>
			</defs>
			<clipPath id="SVGID_14_">
				<use xlink:href="#SVGID_13_"  style="overflow:visible;"/>
			</clipPath>
			
				<linearGradient id="SVGID_15_" gradientUnits="userSpaceOnUse" x1="6.2046" y1="574.9422" x2="8.7065" y2="574.9422" gradientTransform="matrix(-96 101 101 96 -56952.3555 -55775.2695)">
				<stop  offset="0" style="stop-color:#DA8956"/>
				<stop  offset="0.1346" style="stop-color:#D58554"/>
				<stop  offset="0.2952" style="stop-color:#C67A4D"/>
				<stop  offset="0.4692" style="stop-color:#AE6843"/>
				<stop  offset="0.6525" style="stop-color:#8D4F34"/>
				<stop  offset="0.8414" style="stop-color:#622F20"/>
				<stop  offset="0.8813" style="stop-color:#58271C"/>
				<stop  offset="1" style="stop-color:#58271C"/>
			</linearGradient>
			<polygon class="st6" points="634.3,165.4 407.9,403.6 169.6,177.2 396.1,-61.1 			"/>
		</g>
		<g>
			<defs>
				<polygon id="SVGID_16_" points="421.9,189.5 421.9,201 421.9,201 468.8,174 463.8,165.3 				"/>
			</defs>
			<clipPath id="SVGID_17_">
				<use xlink:href="#SVGID_16_"  style="overflow:visible;"/>
			</clipPath>
			
				<linearGradient id="SVGID_18_" gradientUnits="userSpaceOnUse" x1="6.2046" y1="575.1159" x2="8.7065" y2="575.1159" gradientTransform="matrix(-96 101 101 96 -56941.1484 -55764.6211)">
				<stop  offset="0" style="stop-color:#DA8956"/>
				<stop  offset="0.1346" style="stop-color:#D58554"/>
				<stop  offset="0.2952" style="stop-color:#C67A4D"/>
				<stop  offset="0.4692" style="stop-color:#AE6843"/>
				<stop  offset="0.6525" style="stop-color:#8D4F34"/>
				<stop  offset="0.8414" style="stop-color:#622F20"/>
				<stop  offset="0.8813" style="stop-color:#58271C"/>
				<stop  offset="1" style="stop-color:#58271C"/>
			</linearGradient>
			<polygon class="st7" points="486.7,182.3 446.6,224.5 404,184.1 444.2,141.8 			"/>
		</g>
		<g>
			<defs>
				<polygon id="SVGID_19_" points="335.1,174 381.9,201 381.9,189.5 340.1,165.3 				"/>
			</defs>
			<clipPath id="SVGID_20_">
				<use xlink:href="#SVGID_19_"  style="overflow:visible;"/>
			</clipPath>
			
				<linearGradient id="SVGID_21_" gradientUnits="userSpaceOnUse" x1="6.2046" y1="574.8366" x2="8.7065" y2="574.8366" gradientTransform="matrix(-96 101 101 96 -56958.5781 -55781.1875)">
				<stop  offset="0" style="stop-color:#DA8956"/>
				<stop  offset="0.1346" style="stop-color:#D58554"/>
				<stop  offset="0.2952" style="stop-color:#C67A4D"/>
				<stop  offset="0.4692" style="stop-color:#AE6843"/>
				<stop  offset="0.6525" style="stop-color:#8D4F34"/>
				<stop  offset="0.8414" style="stop-color:#622F20"/>
				<stop  offset="0.8813" style="stop-color:#58271C"/>
				<stop  offset="1" style="stop-color:#58271C"/>
			</linearGradient>
			<polygon class="st8" points="399.8,182.2 359.7,224.4 317.2,184.1 357.3,141.9 			"/>
		</g>
	</g>
</g>
</svg>
