<?xml version="1.0" encoding="utf-8"?>
<!-- Generator: Adobe Illustrator 19.1.0, SVG Export Plug-In . SVG Version: 6.00 Build 0)  -->
<svg version="1.1" id="Capa_1" xmlns="http://www.w3.org/2000/svg" xmlns:xlink="http://www.w3.org/1999/xlink" x="0px" y="0px"
	 viewBox="0 0 296.5 242.7" style="enable-background:new 0 0 296.5 242.7;" xml:space="preserve">
<style type="text/css">
	.st0{clip-path:url(#SVGID_2_);fill:url(#SVGID_3_);}
	.st1{clip-path:url(#SVGID_5_);fill:url(#SVGID_6_);}
	.st2{clip-path:url(#SVGID_8_);fill:url(#SVGID_9_);}
	.st3{clip-path:url(#SVGID_11_);fill:url(#SVGID_12_);}
	.st4{clip-path:url(#SVGID_14_);fill:url(#SVGID_15_);}
	.st5{clip-path:url(#SVGID_17_);fill:url(#SVGID_18_);}
	.st6{clip-path:url(#SVGID_20_);fill:url(#SVGID_21_);}
	.st7{fill:#FFFFFF;}
</style>
<g>
	<g>
		<defs>
			<path id="SVGID_1_" d="M143.4,87.6l-31.1-18v-36l31.1-18l31.1,18v36L143.4,87.6z M116.8,67l26.6,15.4L170.1,67V36.3l-26.7-15.4
				l-26.6,15.4V67z"/>
		</defs>
		<clipPath id="SVGID_2_">
			<use xlink:href="#SVGID_1_"  style="overflow:visible;"/>
		</clipPath>
		
			<linearGradient id="SVGID_3_" gradientUnits="userSpaceOnUse" x1="-287.3423" y1="318.965" x2="-286.2195" y2="318.965" gradientTransform="matrix(-96 101 101 96 -59603.6797 -1603.4275)">
			<stop  offset="0" style="stop-color:#DA8956"/>
			<stop  offset="0.1346" style="stop-color:#D58554"/>
			<stop  offset="0.2952" style="stop-color:#C67A4D"/>
			<stop  offset="0.4692" style="stop-color:#AE6843"/>
			<stop  offset="0.6525" style="stop-color:#8D4F34"/>
			<stop  offset="0.8414" style="stop-color:#622F20"/>
			<stop  offset="0.8813" style="stop-color:#58271C"/>
			<stop  offset="1" style="stop-color:#58271C"/>
		</linearGradient>
		<polygon class="st0" points="210.5,49.8 145,118.7 76.4,53.5 141.8,-15.4 		"/>
	</g>
	<g>
		<defs>
			<polygon id="SVGID_4_" points="143.6,54.2 114,37.2 116.3,33.3 143.6,49.1 170.5,33.5 172.8,37.4 			"/>
		</defs>
		<clipPath id="SVGID_5_">
			<use xlink:href="#SVGID_4_"  style="overflow:visible;"/>
		</clipPath>
		
			<linearGradient id="SVGID_6_" gradientUnits="userSpaceOnUse" x1="-287.3423" y1="318.9926" x2="-286.2195" y2="318.9926" gradientTransform="matrix(-96 101 101 96 -59610.4023 -1609.8201)">
			<stop  offset="0" style="stop-color:#DA8956"/>
			<stop  offset="0.1346" style="stop-color:#D58554"/>
			<stop  offset="0.2952" style="stop-color:#C67A4D"/>
			<stop  offset="0.4692" style="stop-color:#AE6843"/>
			<stop  offset="0.6525" style="stop-color:#8D4F34"/>
			<stop  offset="0.8414" style="stop-color:#622F20"/>
			<stop  offset="0.8813" style="stop-color:#58271C"/>
			<stop  offset="1" style="stop-color:#58271C"/>
		</linearGradient>
		<polygon class="st1" points="183.2,43.2 144.9,83.6 103.6,44.3 141.9,3.9 		"/>
	</g>
	<g>
		<defs>
			<polygon id="SVGID_7_" points="143.5,41.1 125.2,30.5 127.4,26.6 143.5,35.9 159.4,26.7 161.6,30.6 			"/>
		</defs>
		<clipPath id="SVGID_8_">
			<use xlink:href="#SVGID_7_"  style="overflow:visible;"/>
		</clipPath>
		
			<linearGradient id="SVGID_9_" gradientUnits="userSpaceOnUse" x1="-287.3423" y1="318.9732" x2="-286.2195" y2="318.9732" gradientTransform="matrix(-96 101 101 96 -59613.4062 -1612.6726)">
			<stop  offset="0" style="stop-color:#DA8956"/>
			<stop  offset="0.1346" style="stop-color:#D58554"/>
			<stop  offset="0.2952" style="stop-color:#C67A4D"/>
			<stop  offset="0.4692" style="stop-color:#AE6843"/>
			<stop  offset="0.6525" style="stop-color:#8D4F34"/>
			<stop  offset="0.8414" style="stop-color:#622F20"/>
			<stop  offset="0.8813" style="stop-color:#58271C"/>
			<stop  offset="1" style="stop-color:#58271C"/>
		</linearGradient>
		<polygon class="st2" points="168.9,33.5 144.3,59.3 117.9,34.2 142.5,8.4 		"/>
	</g>
	<g>
		<defs>
			<rect id="SVGID_10_" x="141.2" y="18.3" width="4.5" height="98.4"/>
		</defs>
		<clipPath id="SVGID_11_">
			<use xlink:href="#SVGID_10_"  style="overflow:visible;"/>
		</clipPath>
		
			<linearGradient id="SVGID_12_" gradientUnits="userSpaceOnUse" x1="-287.3423" y1="318.9736" x2="-286.2195" y2="318.9736" gradientTransform="matrix(-96 101 101 96 -59596.6328 -1596.7302)">
			<stop  offset="0" style="stop-color:#DA8956"/>
			<stop  offset="0.1346" style="stop-color:#D58554"/>
			<stop  offset="0.2952" style="stop-color:#C67A4D"/>
			<stop  offset="0.4692" style="stop-color:#AE6843"/>
			<stop  offset="0.6525" style="stop-color:#8D4F34"/>
			<stop  offset="0.8414" style="stop-color:#622F20"/>
			<stop  offset="0.8813" style="stop-color:#58271C"/>
			<stop  offset="1" style="stop-color:#58271C"/>
		</linearGradient>
		<polygon class="st3" points="194.8,65 143.5,118.9 92,70 143.3,16 		"/>
	</g>
	<g>
		<defs>
			<path id="SVGID_13_" d="M95.7,52.2c0-26.3,21.4-47.7,47.7-47.7s47.7,21.4,47.7,47.7c0,26.3-21.4,47.7-47.7,47.7
				S95.7,78.5,95.7,52.2 M91.2,52.2c0,28.8,23.4,52.2,52.2,52.2s52.2-23.4,52.2-52.2c0-28.8-23.4-52.2-52.2-52.2
				S91.2,23.4,91.2,52.2"/>
		</defs>
		<clipPath id="SVGID_14_">
			<use xlink:href="#SVGID_13_"  style="overflow:visible;"/>
		</clipPath>
		
			<linearGradient id="SVGID_15_" gradientUnits="userSpaceOnUse" x1="-287.3423" y1="318.9653" x2="-286.2195" y2="318.9653" gradientTransform="matrix(-96 101 101 96 -59603.4453 -1603.2078)">
			<stop  offset="0" style="stop-color:#DA8956"/>
			<stop  offset="0.1346" style="stop-color:#D58554"/>
			<stop  offset="0.2952" style="stop-color:#C67A4D"/>
			<stop  offset="0.4692" style="stop-color:#AE6843"/>
			<stop  offset="0.6525" style="stop-color:#8D4F34"/>
			<stop  offset="0.8414" style="stop-color:#622F20"/>
			<stop  offset="0.8813" style="stop-color:#58271C"/>
			<stop  offset="1" style="stop-color:#58271C"/>
		</linearGradient>
		<polygon class="st4" points="247.7,49.5 146.1,156.4 39.1,54.8 140.8,-52.1 		"/>
	</g>
	<g>
		<defs>
			<polygon id="SVGID_16_" points="152.4,60.4 152.4,65.5 152.4,65.5 173.4,53.4 171.2,49.5 			"/>
		</defs>
		<clipPath id="SVGID_17_">
			<use xlink:href="#SVGID_16_"  style="overflow:visible;"/>
		</clipPath>
		
			<linearGradient id="SVGID_18_" gradientUnits="userSpaceOnUse" x1="-287.3423" y1="318.9821" x2="-286.2195" y2="318.9821" gradientTransform="matrix(-96 101 101 96 -59592.2422 -1592.5574)">
			<stop  offset="0" style="stop-color:#DA8956"/>
			<stop  offset="0.1346" style="stop-color:#D58554"/>
			<stop  offset="0.2952" style="stop-color:#C67A4D"/>
			<stop  offset="0.4692" style="stop-color:#AE6843"/>
			<stop  offset="0.6525" style="stop-color:#8D4F34"/>
			<stop  offset="0.8414" style="stop-color:#622F20"/>
			<stop  offset="0.8813" style="stop-color:#58271C"/>
			<stop  offset="1" style="stop-color:#58271C"/>
		</linearGradient>
		<polygon class="st5" points="181.4,57.1 163.4,76.1 144.3,57.9 162.4,39 		"/>
	</g>
	<g>
		<defs>
			<polygon id="SVGID_19_" points="113.4,53.4 134.4,65.5 134.4,60.3 115.6,49.5 			"/>
		</defs>
		<clipPath id="SVGID_20_">
			<use xlink:href="#SVGID_19_"  style="overflow:visible;"/>
		</clipPath>
		
			<linearGradient id="SVGID_21_" gradientUnits="userSpaceOnUse" x1="-287.3423" y1="318.9519" x2="-286.2195" y2="318.9519" gradientTransform="matrix(-96 101 101 96 -59609.6719 -1609.1248)">
			<stop  offset="0" style="stop-color:#DA8956"/>
			<stop  offset="0.1346" style="stop-color:#D58554"/>
			<stop  offset="0.2952" style="stop-color:#C67A4D"/>
			<stop  offset="0.4692" style="stop-color:#AE6843"/>
			<stop  offset="0.6525" style="stop-color:#8D4F34"/>
			<stop  offset="0.8414" style="stop-color:#622F20"/>
			<stop  offset="0.8813" style="stop-color:#58271C"/>
			<stop  offset="1" style="stop-color:#58271C"/>
		</linearGradient>
		<polygon class="st6" points="142.4,57.1 124.4,76 105.4,57.9 123.4,39 		"/>
	</g>
	<g>
		<path class="st7" d="M29.7,232.1h3.4c2.1,0,3.5,1.1,3.5,2.8c0,1-0.5,1.9-1.3,2.3c1,0.4,1.6,1.3,1.6,2.4c0,2.1-1.7,3.1-3.6,3.1
			h-3.6V232.1z M33.1,236.4c0.7,0,1.3-0.5,1.3-1.2c0-0.7-0.5-1.2-1.4-1.2h-1.2v2.4H33.1z M33.2,240.9c0.9,0,1.5-0.5,1.5-1.4
			c0-0.9-0.7-1.4-1.5-1.4h-1.3v2.8H33.2z"/>
		<path class="st7" d="M47.2,238.7v-6.6h2.1v6.6c0,1.4,0.8,2.2,2.1,2.2c1.4,0,2.1-0.8,2.1-2.2v-6.6h2.1v6.6c0,2.5-1.5,4.2-4.3,4.2
			C48.7,242.9,47.2,241.2,47.2,238.7"/>
		<rect x="66.6" y="232.1" class="st7" width="2.1" height="10.6"/>
		<polygon class="st7" points="79.5,232.1 81.7,232.1 81.7,240.8 85.2,240.8 85.2,242.7 79.5,242.7 		"/>
		<path class="st7" d="M95.3,232.1h2.8c3.5,0,5.6,2,5.6,5.3c0,3.4-2.2,5.3-5.6,5.3h-2.8V232.1z M98.2,240.9c2,0,3.3-1.2,3.3-3.5
			c0-2.2-1.3-3.5-3.3-3.5h-0.8v6.9H98.2z"/>
		<path class="st7" d="M126.6,238.7v-6.6h2.1v6.6c0,1.4,0.8,2.2,2.1,2.2c1.4,0,2.1-0.8,2.1-2.2v-6.6h2.1v6.6c0,2.5-1.5,4.2-4.3,4.2
			C128.1,242.9,126.6,241.2,126.6,238.7"/>
		<polygon class="st7" points="148,235.5 148,242.7 145.9,242.7 145.9,232.1 148.1,232.1 152.6,239.4 152.6,232.1 154.8,232.1 
			154.8,242.7 152.6,242.7 		"/>
		<rect x="165.6" y="232.1" class="st7" width="2.1" height="10.6"/>
		<path class="st7" d="M178,237.4c0-3.1,2.3-5.5,5.5-5.5c3.3,0,5.5,2.4,5.5,5.5c0,1.2-0.4,2.3-1,3.2l1,0.9l-1.3,1.4l-1.1-1
			c-0.9,0.6-2,1-3.2,1C180.3,242.9,178,240.5,178,237.4 M180.2,237.4c0,2,1.4,3.5,3.3,3.5c0.6,0,1.1-0.1,1.6-0.4l-1-0.9l1.3-1.4
			l1,0.9c0.2-0.5,0.4-1.1,0.4-1.7c0-2-1.4-3.5-3.3-3.5C181.6,233.9,180.2,235.4,180.2,237.4"/>
		<path class="st7" d="M199.3,238.7v-6.6h2.1v6.6c0,1.4,0.8,2.2,2.1,2.2c1.4,0,2.1-0.8,2.1-2.2v-6.6h2.1v6.6c0,2.5-1.5,4.2-4.3,4.2
			C200.9,242.9,199.3,241.2,199.3,238.7"/>
		<polygon class="st7" points="218.7,232.1 224.2,232.1 224.2,234 220.8,234 220.8,236.4 223.7,236.4 223.7,238.3 220.8,238.3 
			220.8,240.8 224.3,240.8 224.3,242.7 218.7,242.7 		"/>
		<polygon class="st7" points="234.8,232.1 237,232.1 237,240.8 240.4,240.8 240.4,242.7 234.8,242.7 		"/>
		<polygon class="st7" points="251.7,237.9 248.4,232.1 250.8,232.1 252.8,235.9 254.7,232.1 257.1,232.1 253.8,237.9 253.8,242.7 
			251.7,242.7 		"/>
		<path class="st7" d="M30.6,185.5c-0.8-0.8-1.7-1.5-2.8-1.9c-1-0.5-2-0.8-3.1-0.9c1.8-0.5,3.3-1.5,4.6-3.1c1.3-1.6,1.9-3.7,1.9-6.2
			v-1.3c0-1.5-0.1-2.9-0.4-4.1c-0.3-1.2-0.6-2.2-1-3c-0.4-0.8-1-1.5-1.6-2.1c-0.7-0.6-1.4-1-2-1.4c-0.7-0.3-1.5-0.6-2.5-0.8
			c-1-0.2-1.9-0.3-2.7-0.4c-0.8-0.1-1.8-0.1-2.9-0.1H0l0,47h19c1.1,0,2,0,2.8-0.1c0.8-0.1,1.8-0.2,2.8-0.4c1-0.2,1.9-0.5,2.7-0.8
			c0.8-0.4,1.6-0.8,2.3-1.5c0.8-0.6,1.4-1.4,1.9-2.2c0.5-0.8,0.9-1.9,1.3-3.1c0.3-1.3,0.5-2.7,0.6-4.3v-2.1c0-1.6-0.3-2.9-0.8-4.2
			C32.1,187.4,31.4,186.3,30.6,185.5 M6.5,165.9H18c0.8,0,1.6,0,2.1,0.1c0.6,0.1,1.2,0.2,1.8,0.5c0.7,0.2,1.2,0.6,1.6,1
			c0.4,0.4,0.7,1,1,1.8c0.3,0.8,0.4,1.7,0.4,2.8v1.3c0,1.1-0.1,2.1-0.4,2.9c-0.3,0.8-0.6,1.5-1,1.9c-0.4,0.5-0.9,0.8-1.6,1.1
			c-0.6,0.3-1.3,0.4-1.8,0.5c-0.6,0.1-1.3,0.1-2,0.2l-11.6,0v-3.7V165.9z M26.9,194.9c0,1.2-0.2,2.2-0.6,3.1c-0.3,0.9-0.7,1.6-1.2,2
			c-0.5,0.5-1.1,0.9-1.8,1.1c-0.7,0.3-1.4,0.4-2,0.5c-0.6,0.1-1.4,0.1-2.2,0.1l-12.5,0v-10.9v-5.3h12.3c0.8,0,1.6,0,2.2,0.1
			c0.6,0.1,1.4,0.3,2.1,0.5c0.8,0.3,1.4,0.7,1.9,1.2c0.5,0.5,0.9,1.3,1.3,2.2c0.4,0.9,0.5,2.1,0.5,3.4V194.9z"/>
		<path class="st7" d="M123.5,189.9c0,4.5-0.8,7.7-2.3,9.5c-1.6,1.8-4.3,2.8-8.3,2.8h-0.6c-2.1,0-3.8-0.2-5.2-0.7
			c-1.4-0.5-2.5-1.3-3.3-2.3c-0.8-1.1-1.4-2.3-1.7-3.8c-0.3-1.5-0.5-3.3-0.5-5.4v-29.7H95l0,29.7c0,2.6,0.2,4.8,0.5,6.6
			c0.3,1.8,0.9,3.5,1.6,5c0.8,1.5,1.8,2.7,3.1,3.6c1.3,0.9,2.9,1.6,4.9,2.1c2,0.5,4.3,0.7,7,0.7h0.6c3.3,0,6.1-0.3,8.3-1
			c2.2-0.6,3.9-1.7,5.3-3.2c1.3-1.5,2.3-3.3,2.8-5.5c0.6-2.2,0.8-4.9,0.8-8.3v-29.7h-6.5V189.9z"/>
		<path class="st7" d="M181,164.5c-1.7-1.5-3.9-2.6-6.4-3.2c-2.5-0.7-5.5-1-9-1.1h-17.2l0.1,47.1h17.2c3.4,0,6.3-0.3,8.7-1
			c2.5-0.6,4.6-1.7,6.4-3.1c1.8-1.5,3.1-3.4,4-5.9c0.9-2.5,1.4-5.4,1.4-8.9V179c0-3.4-0.4-6.3-1.3-8.7C184,168,182.7,166,181,164.5
			 M179.5,188.5c0,4.8-1,8.2-3.1,10.2c-2.1,2-5.7,3-10.9,3l-10.7,0v-35.8h10.7c2.5,0,4.5,0.2,6.2,0.6c1.7,0.4,3.1,1.1,4.3,2.1
			c1.2,1,2.1,2.4,2.6,4.1c0.6,1.7,0.8,3.8,0.8,6.4V188.5z"/>
		<polygon class="st7" points="208.6,186.8 228.5,186.8 228.5,181.2 208.6,181.2 208.6,165.8 231,165.8 231,160.2 202.1,160.2 
			202.1,207.3 231.6,207.3 231.6,201.7 208.6,201.7 		"/>
		<path class="st7" d="M286.7,173.1c-0.2-1.2-0.4-2.2-0.7-3c-0.3-0.8-0.7-1.8-1.3-2.8c-0.6-1.1-1.3-2-2.1-2.7
			c-0.8-0.8-1.8-1.5-3.1-2.2c-1.3-0.7-2.7-1.2-4.3-1.6c-2.9-0.7-5.9-1-8.7-1c-2.9,0-5.8,0.3-8.7,1c-1.6,0.4-3,0.9-4.3,1.6
			c-1.3,0.7-2.3,1.4-3.1,2.1c-0.8,0.7-1.5,1.6-2.1,2.7c-0.6,1.1-1,2-1.3,2.9c-0.3,0.8-0.5,1.8-0.7,3c-0.2,1.2-0.3,2.1-0.3,2.8
			c0,0.7-0.1,1.6-0.1,2.6l0.1,10.7c0,1,0,1.8,0,2.6c0,0.7,0.1,1.7,0.3,2.8c0.2,1.2,0.4,2.2,0.7,3c0.3,0.8,0.7,1.8,1.3,2.9
			c0.6,1.1,1.3,2,2.1,2.7c0.8,0.7,1.8,1.5,3.1,2.1c1.3,0.7,2.7,1.2,4.3,1.6c2.9,0.6,5.8,1,8.8,1c2.9,0,5.9-0.3,8.7-1
			c1.6-0.4,3-0.9,4.3-1.6c1.3-0.7,2.3-1.4,3.1-2.2c0.8-0.8,1.5-1.7,2.1-2.7c0.6-1.1,1-2,1.3-2.8c0.3-0.8,0.5-1.8,0.7-3
			c0.2-1.2,0.3-2.1,0.3-2.8c0-0.7,0-1.6,0-2.6v-10.7c0-1,0-1.8-0.1-2.6C286.9,175.2,286.8,174.2,286.7,173.1 M280.3,189.2
			c0,4.9-1,8.3-3.1,10.3c-2.1,1.9-5.7,2.9-10.9,2.9c-2.4,0-4.5-0.2-6.1-0.6c-1.6-0.4-3.1-1.1-4.3-2c-1.2-1-2.1-2.3-2.7-4
			c-0.6-1.7-0.9-3.8-0.9-6.4l0.1-10.9c0-4.9,1-8.3,3.1-10.2c2-1.9,5.7-2.9,10.9-2.9c2.6,0,4.7,0.2,6.3,0.6c1.7,0.4,3.1,1.1,4.3,2
			c1.2,1,2,2.3,2.6,4c0.5,1.7,0.8,3.9,0.8,6.5V189.2z"/>
		<path class="st7" d="M295.2,153.9c-0.8-0.9-1.8-1.3-3-1.3c-1.2,0-2.2,0.4-3,1.3c-0.8,0.9-1.2,1.9-1.2,3.2c0,1.3,0.4,2.3,1.2,3.2
			c0.8,0.9,1.8,1.3,3,1.3c1.2,0,2.2-0.4,3-1.3c0.8-0.9,1.2-1.9,1.2-3.2C296.5,155.9,296.1,154.8,295.2,153.9 M294.7,159.8
			c-0.7,0.7-1.5,1.1-2.5,1.1c-1,0-1.8-0.4-2.5-1.1c-0.7-0.7-1-1.6-1-2.7c0-1,0.3-1.9,1-2.6c0.7-0.7,1.5-1.1,2.5-1.1
			c1,0,1.8,0.4,2.5,1.1c0.7,0.7,1,1.6,1,2.6C295.7,158.2,295.4,159,294.7,159.8"/>
		<path class="st7" d="M294.1,158.7v-0.3c0-0.3-0.1-0.6-0.1-0.8c-0.1-0.2-0.3-0.4-0.5-0.5c0.2-0.1,0.4-0.3,0.5-0.4
			c0.1-0.2,0.2-0.4,0.2-0.6c0-0.5-0.2-0.9-0.5-1.2c-0.3-0.3-0.8-0.4-1.4-0.4h-1.7v5.1h0.9v-2h0.9c0.3,0,0.5,0.1,0.7,0.2
			s0.2,0.3,0.2,0.6v0.3c0,0.2,0,0.3,0,0.5c0,0.2,0,0.3,0.1,0.4h0.9v-0.1c0-0.1-0.1-0.2-0.1-0.3C294.1,159,294.1,158.9,294.1,158.7
			 M292.9,156.6c-0.2,0.1-0.5,0.2-0.8,0.2h-0.8v-1.5h0.8c0.4,0,0.7,0.1,0.8,0.2c0.2,0.1,0.2,0.3,0.2,0.6
			C293.2,156.3,293.1,156.5,292.9,156.6"/>
		<polygon class="st7" points="61.2,160.2 44.4,207.3 51.6,207.3 64.3,169 64.6,169 77.4,207.3 84.5,207.3 67.8,160.2 		"/>
	</g>
</g>
</svg>
