<?xml version="1.0" encoding="utf-8"?>
<!-- Generator: Adobe Illustrator 19.1.0, SVG Export Plug-In . SVG Version: 6.00 Build 0)  -->
<svg version="1.1" id="Capa_1" xmlns="http://www.w3.org/2000/svg" xmlns:xlink="http://www.w3.org/1999/xlink" x="0px" y="0px"
	 viewBox="0 0 815 573" style="enable-background:new 0 0 815 573;" xml:space="preserve">
<style type="text/css">
	.st0{opacity:0.6;}
	.st1{fill:#FFFFFF;}
	.st2{clip-path:url(#SVGID_2_);fill:url(#SVGID_3_);}
	.st3{clip-path:url(#SVGID_5_);fill:url(#SVGID_6_);}
	.st4{clip-path:url(#SVGID_8_);fill:url(#SVGID_9_);}
	.st5{clip-path:url(#SVGID_11_);fill:url(#SVGID_12_);}
	.st6{clip-path:url(#SVGID_14_);fill:url(#SVGID_15_);}
	.st7{clip-path:url(#SVGID_17_);fill:url(#SVGID_18_);}
	.st8{clip-path:url(#SVGID_20_);fill:url(#SVGID_21_);}
</style>
<g>
	<g class="st0">
		<g>
			<path class="st1" d="M20.3,407.9h36.3c2.9,0,5.4,0.1,7.6,0.3s4.3,0.5,6.5,1c2.2,0.5,4.1,1.2,5.7,2.1c1.6,0.9,3.1,2.1,4.5,3.5
				s2.5,3.2,3.4,5.2s1.5,4.5,2,7.4c0.5,2.9,0.7,6.1,0.7,9.8c0,3.6-0.3,6.9-0.7,9.8c-0.5,2.9-1.1,5.3-2,7.4c-0.8,2-2,3.8-3.4,5.3
				s-2.9,2.7-4.5,3.6c-1.6,0.9-3.5,1.6-5.7,2.1c-2.2,0.5-4.4,0.8-6.5,1s-4.6,0.3-7.5,0.3H33.5v36.1H20.4L20.3,407.9z M56.7,455.5
				c2.3,0,4.3-0.1,5.9-0.4c1.6-0.3,3.1-0.7,4.6-1.4c1.5-0.7,2.7-1.8,3.5-3.1c0.8-1.3,1.6-3.1,2.1-5.3c0.5-2.2,0.8-4.9,0.8-8
				c0-3.8-0.4-7-1.1-9.5c-0.7-2.5-1.9-4.3-3.5-5.5c-1.6-1.2-3.4-2-5.2-2.4s-4.2-0.6-7.2-0.6H33.4v36L56.7,455.5z"/>
			<path class="st1" d="M99.9,444.7c0-2,0.1-3.8,0.1-5.2c0.1-1.4,0.3-3.3,0.6-5.7c0.3-2.3,0.8-4.4,1.4-6.1c0.6-1.7,1.5-3.6,2.7-5.8
				c1.2-2.1,2.6-4,4.2-5.5s3.7-2.9,6.3-4.3c2.5-1.4,5.4-2.5,8.6-3.3c5.9-1.4,11.8-2,17.6-2c5.8,0,11.7,0.7,17.6,2
				c3.2,0.8,6.1,1.9,8.6,3.3c2.5,1.4,4.6,2.8,6.3,4.4c1.6,1.6,3,3.4,4.2,5.5c1.2,2.1,2.1,4,2.7,5.7s1,3.7,1.4,6.1
				c0.3,2.3,0.5,4.2,0.6,5.7c0.1,1.4,0.1,3.1,0.1,5.1v21.5c0,2,0,3.7-0.1,5.1c-0.1,1.4-0.3,3.3-0.6,5.7c-0.3,2.3-0.8,4.4-1.4,6.1
				s-1.4,3.6-2.6,5.7c-1.2,2.1-2.5,4-4.2,5.5c-1.6,1.6-3.7,3-6.3,4.4c-2.5,1.4-5.4,2.5-8.6,3.3c-5.8,1.3-11.7,2-17.6,2
				c-6,0-11.9-0.7-17.6-2c-3.2-0.8-6.1-1.9-8.6-3.3c-2.5-1.4-4.6-2.8-6.3-4.3c-1.6-1.5-3-3.3-4.2-5.5c-1.2-2.1-2-4.1-2.6-5.8
				c-0.6-1.7-1-3.7-1.4-6.1c-0.3-2.3-0.5-4.2-0.6-5.7c-0.1-1.4-0.1-3.1-0.1-5.1L99.9,444.7z M112.7,466.7c0,5.1,0.6,9.4,1.8,12.9
				c1.2,3.5,3,6.2,5.5,8.1c2.5,2,5.4,3.3,8.7,4.1s7.4,1.2,12.3,1.2c10.5,0,17.8-2,21.9-5.9c4.2-3.9,6.3-10.8,6.3-20.6V445
				c-0.1-5.3-0.7-9.7-1.7-13.2c-1-3.5-2.7-6.2-5.1-8.1c-2.4-2-5.3-3.3-8.6-4.1c-3.3-0.8-7.6-1.2-12.7-1.2c-10.5,0-17.8,2-21.9,5.8
				c-4.1,3.8-6.2,10.7-6.2,20.5v21.8L112.7,466.7z"/>
			<path class="st1" d="M201.6,408h36.1c2.9,0,5.4,0.1,7.6,0.3c2.1,0.2,4.3,0.5,6.5,1c2.2,0.5,4.1,1.2,5.7,2.1
				c1.6,0.9,3.1,2.1,4.5,3.5s2.5,3.2,3.4,5.2c0.8,2,1.5,4.5,2,7.4s0.7,6.1,0.7,9.8c0,4.7-0.4,8.7-1.2,12.1c-0.8,3.4-1.9,6.2-3.3,8.3
				c-1.4,2.1-3.2,3.8-5.4,5.1c-2.2,1.3-4.6,2.2-7,2.7c-2.5,0.5-5.4,0.8-8.9,1l25.9,36.1h-15.8l-23.7-36.1h-13.7v36.1h-13.1
				L201.6,408z M237.6,455.8c2.9,0,5.3-0.3,7.2-0.7s3.6-1.3,5.3-2.5c1.6-1.2,2.8-3.1,3.5-5.6c0.7-2.5,1.1-5.7,1.1-9.5
				c0-3.8-0.4-7-1.1-9.5c-0.7-2.5-1.9-4.3-3.5-5.5c-1.6-1.2-3.4-2-5.2-2.4c-1.8-0.4-4.2-0.6-7.2-0.6h-23.1v36.4H237.6z"/>
			<path class="st1" d="M277.2,408h70.7v11.3h-28.8v83.5H306v-83.5h-28.8V408z"/>
			<path class="st1" d="M378.1,408h16.9l34,94.8h-13.7l-10.2-29.5H368l-10.1,29.5h-13.7L378.1,408z M401.1,461.8l-14.3-41.7h-0.5
				L372,461.8H401.1z"/>
			<path class="st1" d="M442.1,408H500v11.3h-44.8v30.9h38.6v11.3h-38.6v41.2h-13.1V408z"/>
			<path class="st1" d="M512.7,444.7c0-2,0.1-3.8,0.1-5.2s0.3-3.3,0.6-5.7c0.3-2.3,0.8-4.4,1.4-6.1c0.6-1.7,1.5-3.6,2.7-5.8
				c1.2-2.1,2.6-4,4.2-5.5c1.6-1.5,3.7-2.9,6.3-4.3c2.5-1.4,5.4-2.5,8.6-3.3c5.9-1.4,11.8-2,17.6-2s11.7,0.7,17.6,2
				c3.2,0.8,6.1,1.9,8.6,3.3c2.5,1.4,4.6,2.8,6.3,4.4c1.6,1.6,3,3.4,4.2,5.5c1.2,2.1,2.1,4,2.7,5.7c0.6,1.7,1,3.7,1.4,6.1
				c0.3,2.3,0.5,4.2,0.6,5.7c0.1,1.4,0.1,3.1,0.1,5.1v21.5c0,2,0,3.7-0.1,5.1c-0.1,1.4-0.3,3.3-0.6,5.7c-0.3,2.3-0.8,4.4-1.4,6.1
				s-1.4,3.6-2.6,5.7c-1.2,2.1-2.5,4-4.2,5.5c-1.6,1.6-3.7,3-6.3,4.4c-2.5,1.4-5.4,2.5-8.6,3.3c-5.8,1.3-11.7,2-17.6,2
				c-6,0-11.9-0.7-17.6-2c-3.2-0.8-6.1-1.9-8.6-3.3c-2.5-1.4-4.6-2.8-6.3-4.3c-1.6-1.5-3-3.3-4.2-5.5c-1.2-2.1-2-4.1-2.6-5.8
				c-0.6-1.7-1-3.7-1.4-6.1c-0.3-2.3-0.5-4.2-0.6-5.7s-0.1-3.1-0.1-5.1L512.7,444.7z M525.5,466.7c0,5.1,0.6,9.4,1.8,12.9
				c1.2,3.5,3,6.2,5.5,8.1c2.5,2,5.4,3.3,8.7,4.1s7.4,1.2,12.3,1.2c10.5,0,17.8-2,21.9-5.9c4.2-3.9,6.3-10.8,6.3-20.6V445
				c-0.1-5.3-0.7-9.7-1.7-13.2c-1-3.5-2.7-6.2-5.1-8.1c-2.4-2-5.3-3.3-8.6-4.1c-3.3-0.8-7.6-1.2-12.7-1.2c-10.5,0-17.8,2-21.9,5.8
				c-4.1,3.8-6.2,10.7-6.2,20.5v21.8L525.5,466.7z"/>
			<path class="st1" d="M614.7,408h13.1v83.5H669v11.3h-54.3V408z"/>
			<path class="st1" d="M682.6,408h13.1v94.8h-13.1V408z"/>
			<path class="st1" d="M714.8,444.7c0-2,0.1-3.8,0.1-5.2s0.3-3.3,0.6-5.7c0.3-2.3,0.8-4.4,1.4-6.1c0.6-1.7,1.5-3.6,2.7-5.8
				c1.2-2.1,2.6-4,4.2-5.5c1.6-1.5,3.7-2.9,6.3-4.3c2.5-1.4,5.4-2.5,8.6-3.3c5.9-1.4,11.8-2,17.6-2s11.7,0.7,17.6,2
				c3.2,0.8,6.1,1.9,8.6,3.3c2.5,1.4,4.6,2.8,6.3,4.4c1.6,1.6,3,3.4,4.2,5.5c1.2,2.1,2.1,4,2.7,5.7c0.6,1.7,1,3.7,1.4,6.1
				c0.3,2.3,0.5,4.2,0.6,5.7c0.1,1.4,0.1,3.1,0.1,5.1v21.5c0,2,0,3.7-0.1,5.1c-0.1,1.4-0.3,3.3-0.6,5.7c-0.3,2.3-0.8,4.4-1.4,6.1
				s-1.4,3.6-2.6,5.7c-1.2,2.1-2.5,4-4.2,5.5c-1.6,1.6-3.7,3-6.3,4.4c-2.5,1.4-5.4,2.5-8.6,3.3c-5.8,1.3-11.7,2-17.6,2
				c-6,0-11.9-0.7-17.6-2c-3.2-0.8-6.1-1.9-8.6-3.3c-2.5-1.4-4.6-2.8-6.3-4.3c-1.6-1.5-3-3.3-4.2-5.5c-1.2-2.1-2-4.1-2.6-5.8
				c-0.6-1.7-1-3.7-1.4-6.1c-0.3-2.3-0.5-4.2-0.6-5.7s-0.1-3.1-0.1-5.1L714.8,444.7z M727.6,466.7c0,5.1,0.6,9.4,1.8,12.9
				c1.2,3.5,3,6.2,5.5,8.1c2.5,2,5.4,3.3,8.7,4.1s7.4,1.2,12.3,1.2c10.5,0,17.8-2,21.9-5.9c4.2-3.9,6.3-10.8,6.3-20.6V445
				c-0.1-5.3-0.7-9.7-1.7-13.2c-1-3.5-2.7-6.2-5.1-8.1c-2.4-2-5.3-3.3-8.6-4.1c-3.3-0.8-7.6-1.2-12.7-1.2c-10.5,0-17.8,2-21.9,5.8
				c-4.1,3.8-6.2,10.7-6.2,20.5v21.8L727.6,466.7z"/>
		</g>
	</g>
	<g>
		<g>
			<defs>
				<path id="SVGID_1_" d="M407.5,236.9l-69.2-40V117l69.2-40l69.2,40v79.9L407.5,236.9z M348.3,191.1l59.2,34.2l59.2-34.2v-68.4
					l-59.2-34.2l-59.2,34.2V191.1z"/>
			</defs>
			<clipPath id="SVGID_2_">
				<use xlink:href="#SVGID_1_"  style="overflow:visible;"/>
			</clipPath>
			
				<linearGradient id="SVGID_3_" gradientUnits="userSpaceOnUse" x1="6.1117" y1="574.9025" x2="8.6076" y2="574.9025" gradientTransform="matrix(-96 101 101 96 -56952.5859 -55775.4883)">
				<stop  offset="0" style="stop-color:#DA8956"/>
				<stop  offset="0.1346" style="stop-color:#D58554"/>
				<stop  offset="0.2952" style="stop-color:#C67A4D"/>
				<stop  offset="0.4692" style="stop-color:#AE6843"/>
				<stop  offset="0.6525" style="stop-color:#8D4F34"/>
				<stop  offset="0.8414" style="stop-color:#622F20"/>
				<stop  offset="0.8813" style="stop-color:#58271C"/>
				<stop  offset="1" style="stop-color:#58271C"/>
			</linearGradient>
			<polygon class="st2" points="556.6,152.9 411,306 258.5,161 404,7.9 			"/>
		</g>
		<g>
			<defs>
				<polygon id="SVGID_4_" points="408,162.7 342.2,124.7 347.2,116.1 408,151.2 467.8,116.7 472.8,125.3 				"/>
			</defs>
			<clipPath id="SVGID_5_">
				<use xlink:href="#SVGID_4_"  style="overflow:visible;"/>
			</clipPath>
			
				<linearGradient id="SVGID_6_" gradientUnits="userSpaceOnUse" x1="6.1117" y1="574.8823" x2="8.6076" y2="574.8823" gradientTransform="matrix(-96 101 101 96 -56959.3125 -55781.8828)">
				<stop  offset="0" style="stop-color:#DA8956"/>
				<stop  offset="0.1346" style="stop-color:#D58554"/>
				<stop  offset="0.2952" style="stop-color:#C67A4D"/>
				<stop  offset="0.4692" style="stop-color:#AE6843"/>
				<stop  offset="0.6525" style="stop-color:#8D4F34"/>
				<stop  offset="0.8414" style="stop-color:#622F20"/>
				<stop  offset="0.8813" style="stop-color:#58271C"/>
				<stop  offset="1" style="stop-color:#58271C"/>
			</linearGradient>
			<polygon class="st3" points="496.1,138.2 410.8,227.9 319,140.6 404.2,50.9 			"/>
		</g>
		<g>
			<defs>
				<polygon id="SVGID_7_" points="407.8,133.4 367,109.8 372,101.2 407.8,121.9 443,101.5 448,110.2 				"/>
			</defs>
			<clipPath id="SVGID_8_">
				<use xlink:href="#SVGID_7_"  style="overflow:visible;"/>
			</clipPath>
			
				<linearGradient id="SVGID_9_" gradientUnits="userSpaceOnUse" x1="6.1116" y1="574.8029" x2="8.6076" y2="574.8029" gradientTransform="matrix(-96 101 101 96 -56962.3125 -55784.7344)">
				<stop  offset="0" style="stop-color:#DA8956"/>
				<stop  offset="0.1346" style="stop-color:#D58554"/>
				<stop  offset="0.2952" style="stop-color:#C67A4D"/>
				<stop  offset="0.4692" style="stop-color:#AE6843"/>
				<stop  offset="0.6525" style="stop-color:#8D4F34"/>
				<stop  offset="0.8414" style="stop-color:#622F20"/>
				<stop  offset="0.8813" style="stop-color:#58271C"/>
				<stop  offset="1" style="stop-color:#58271C"/>
			</linearGradient>
			<polygon class="st4" points="464.1,116.5 409.6,173.9 350.9,118.1 405.4,60.7 			"/>
		</g>
		<g>
			<defs>
				<rect id="SVGID_10_" x="402.5" y="82.8" width="10" height="218.8"/>
			</defs>
			<clipPath id="SVGID_11_">
				<use xlink:href="#SVGID_10_"  style="overflow:visible;"/>
			</clipPath>
			
				<linearGradient id="SVGID_12_" gradientUnits="userSpaceOnUse" x1="6.1117" y1="575.0069" x2="8.6076" y2="575.0069" gradientTransform="matrix(-96 101 101 96 -56945.5391 -55768.793)">
				<stop  offset="0" style="stop-color:#DA8956"/>
				<stop  offset="0.1346" style="stop-color:#D58554"/>
				<stop  offset="0.2952" style="stop-color:#C67A4D"/>
				<stop  offset="0.4692" style="stop-color:#AE6843"/>
				<stop  offset="0.6525" style="stop-color:#8D4F34"/>
				<stop  offset="0.8414" style="stop-color:#622F20"/>
				<stop  offset="0.8813" style="stop-color:#58271C"/>
				<stop  offset="1" style="stop-color:#58271C"/>
			</linearGradient>
			<polygon class="st5" points="521.7,186.6 407.8,306.5 293.3,197.7 407.2,77.8 			"/>
		</g>
		<g>
			<defs>
				<path id="SVGID_13_" d="M301.5,158.1c0-58.4,47.5-106,106-106s106,47.5,106,106c0,58.4-47.5,106-106,106
					S301.5,216.5,301.5,158.1 M291.5,158.1c0,63.9,52,116,116,116s116-52,116-116c0-63.9-52-116-116-116S291.5,94.2,291.5,158.1"/>
			</defs>
			<clipPath id="SVGID_14_">
				<use xlink:href="#SVGID_13_"  style="overflow:visible;"/>
			</clipPath>
			
				<linearGradient id="SVGID_15_" gradientUnits="userSpaceOnUse" x1="6.1116" y1="574.9059" x2="8.6076" y2="574.9059" gradientTransform="matrix(-96 101 101 96 -56952.3555 -55775.2695)">
				<stop  offset="0" style="stop-color:#DA8956"/>
				<stop  offset="0.1346" style="stop-color:#D58554"/>
				<stop  offset="0.2952" style="stop-color:#C67A4D"/>
				<stop  offset="0.4692" style="stop-color:#AE6843"/>
				<stop  offset="0.6525" style="stop-color:#8D4F34"/>
				<stop  offset="0.8414" style="stop-color:#622F20"/>
				<stop  offset="0.8813" style="stop-color:#58271C"/>
				<stop  offset="1" style="stop-color:#58271C"/>
			</linearGradient>
			<polygon class="st6" points="639.3,152.2 413.4,389.9 175.7,164 401.6,-73.7 			"/>
		</g>
		<g>
			<defs>
				<polygon id="SVGID_16_" points="427.4,176.3 427.4,187.8 427.4,187.8 474.2,160.8 469.2,152.1 				"/>
			</defs>
			<clipPath id="SVGID_17_">
				<use xlink:href="#SVGID_16_"  style="overflow:visible;"/>
			</clipPath>
			
				<linearGradient id="SVGID_18_" gradientUnits="userSpaceOnUse" x1="6.1116" y1="575.079" x2="8.6076" y2="575.079" gradientTransform="matrix(-96 101 101 96 -56941.1484 -55764.6211)">
				<stop  offset="0" style="stop-color:#DA8956"/>
				<stop  offset="0.1346" style="stop-color:#D58554"/>
				<stop  offset="0.2952" style="stop-color:#C67A4D"/>
				<stop  offset="0.4692" style="stop-color:#AE6843"/>
				<stop  offset="0.6525" style="stop-color:#8D4F34"/>
				<stop  offset="0.8414" style="stop-color:#622F20"/>
				<stop  offset="0.8813" style="stop-color:#58271C"/>
				<stop  offset="1" style="stop-color:#58271C"/>
			</linearGradient>
			<polygon class="st7" points="492,169.1 452,211.2 409.6,170.9 449.6,128.7 			"/>
		</g>
		<g>
			<defs>
				<polygon id="SVGID_19_" points="340.8,160.8 387.5,187.8 387.5,176.2 345.8,152.1 				"/>
			</defs>
			<clipPath id="SVGID_20_">
				<use xlink:href="#SVGID_19_"  style="overflow:visible;"/>
			</clipPath>
			
				<linearGradient id="SVGID_21_" gradientUnits="userSpaceOnUse" x1="6.1116" y1="574.8008" x2="8.6076" y2="574.8008" gradientTransform="matrix(-96 101 101 96 -56958.5781 -55781.1875)">
				<stop  offset="0" style="stop-color:#DA8956"/>
				<stop  offset="0.1346" style="stop-color:#D58554"/>
				<stop  offset="0.2952" style="stop-color:#C67A4D"/>
				<stop  offset="0.4692" style="stop-color:#AE6843"/>
				<stop  offset="0.6525" style="stop-color:#8D4F34"/>
				<stop  offset="0.8414" style="stop-color:#622F20"/>
				<stop  offset="0.8813" style="stop-color:#58271C"/>
				<stop  offset="1" style="stop-color:#58271C"/>
			</linearGradient>
			<polygon class="st8" points="405.3,169.1 365.3,211.1 323,170.9 363,128.8 			"/>
		</g>
	</g>
</g>
</svg>
