<?xml version="1.0" encoding="utf-8"?>
<!-- Generator: Adobe Illustrator 19.1.0, SVG Export Plug-In . SVG Version: 6.00 Build 0)  -->
<svg version="1.1" id="Capa_1" xmlns="http://www.w3.org/2000/svg" xmlns:xlink="http://www.w3.org/1999/xlink" x="0px" y="0px"
	 viewBox="0 0 815 573" style="enable-background:new 0 0 815 573;" xml:space="preserve">
<style type="text/css">
	.st0{opacity:0.6;}
	.st1{fill:#FFFFFF;}
	.st2{clip-path:url(#SVGID_2_);fill:url(#SVGID_3_);}
	.st3{clip-path:url(#SVGID_5_);fill:url(#SVGID_6_);}
	.st4{clip-path:url(#SVGID_8_);fill:url(#SVGID_9_);}
	.st5{clip-path:url(#SVGID_11_);fill:url(#SVGID_12_);}
	.st6{clip-path:url(#SVGID_14_);fill:url(#SVGID_15_);}
	.st7{clip-path:url(#SVGID_17_);fill:url(#SVGID_18_);}
	.st8{clip-path:url(#SVGID_20_);fill:url(#SVGID_21_);}
</style>
<g>
	<g class="st0">
		<g>
			<path class="st1" d="M90.6,489.4c4.2,1.3,9.1,2.4,14.7,3.1c5.6,0.8,9.9,1.2,12.9,1.2c2.9,0,5.5-0.1,7.6-0.3
				c2.2-0.2,4.2-0.6,6.1-1.1s3.5-1.2,4.6-2.2c1.2-0.9,2.1-2.1,2.7-3.5c0.7-1.4,1-3.1,1-5c0-2.6-0.4-4.8-1.2-6.6
				c-0.8-1.8-1.8-3.2-3.1-4.3s-3.2-2.3-5.6-3.5l-18.6-9.5c-3.5-1.8-6.4-3.5-8.6-5c-2.2-1.5-4.1-3.3-5.9-5.3s-3.1-4.3-3.9-6.8
				c-0.8-2.5-1.2-5.4-1.2-8.8c0-4,0.5-7.5,1.5-10.4c1-2.9,2.4-5.2,4.1-7.1c1.8-1.8,4.1-3.3,7.1-4.3s6.1-1.8,9.5-2.2
				c3.4-0.4,7.5-0.6,12.3-0.6c3.1,0,6.9,0.3,11.5,0.7c4.6,0.5,8.6,1.2,12.1,2.2V422c-2.7-1-6.5-1.9-11.4-2.5
				c-4.9-0.6-8.9-0.9-12.1-0.9c-2.9,0-5.4,0.1-7.4,0.3c-2.1,0.2-4,0.6-5.9,1.2s-3.3,1.4-4.4,2.4s-2,2.3-2.6,3.9
				c-0.7,1.6-1,3.5-1,5.7c0,3.2,1,5.8,2.9,7.8c2,2,5.6,4.3,10.7,7.1l17.5,8.9c4,2,7.2,4,9.5,6.1c2.4,2,4.2,4.6,5.5,7.8
				c1.3,3.2,2,7.1,2,11.6c0,3.8-0.5,7.1-1.6,9.8c-1,2.7-2.5,5-4.4,6.7s-4.4,3.1-7.4,4.1c-3.1,1-6.3,1.8-9.8,2.2s-7.5,0.6-12.2,0.6
				c-2.9,0-7.1-0.3-12.6-1c-5.5-0.7-10.5-1.6-15.1-2.7L90.6,489.4z"/>
			<path class="st1" d="M170.8,408.3h58.3v11.4H184v31h40.2v11.4H184v30h46.4v11.4h-59.5V408.3z"/>
			<path class="st1" d="M247.7,408.4H284c2.9,0,5.4,0.1,7.6,0.3c2.2,0.2,4.3,0.5,6.5,1c2.2,0.5,4.1,1.2,5.7,2.2s3.1,2.1,4.5,3.5
				c1.4,1.4,2.5,3.2,3.4,5.2c0.8,2,1.5,4.5,2,7.4c0.5,2.9,0.7,6.1,0.7,9.8c0,4.7-0.4,8.8-1.2,12.1c-0.8,3.4-1.9,6.2-3.3,8.4
				c-1.4,2.2-3.2,3.9-5.4,5.2c-2.2,1.3-4.6,2.2-7.1,2.7c-2.5,0.5-5.4,0.8-8.9,1l25.9,36.2h-15.8l-23.8-36.2h-13.8v36.2H248
				L247.7,408.4z M283.8,456.3c2.9,0,5.4-0.3,7.2-0.7c1.9-0.5,3.7-1.3,5.3-2.5c1.6-1.2,2.8-3.1,3.5-5.6c0.7-2.5,1.1-5.7,1.1-9.5
				c0-3.9-0.4-7.1-1.1-9.5c-0.7-2.5-1.9-4.3-3.5-5.6c-1.6-1.2-3.4-2-5.2-2.4s-4.2-0.6-7.2-0.6h-23.1v36.5H283.8z"/>
			<path class="st1" d="M336.2,408.3l25.8,77.3h0.5l25.7-77.3h14.4l-33.8,95.1h-13.3l-33.8-95.1H336.2z"/>
			<path class="st1" d="M416,408.3h13.1v95.1H416V408.3z"/>
			<path class="st1" d="M447.8,444.1c0-2,0.1-3.7,0.1-5.1c0.1-1.4,0.3-3.2,0.6-5.5c0.3-2.3,0.8-4.2,1.4-5.9s1.5-3.5,2.7-5.6
				s2.7-3.9,4.4-5.4c1.7-1.5,3.9-2.9,6.6-4.3c2.7-1.4,5.7-2.5,9-3.3c5-1,10.4-1.5,16.1-1.5c3.4,0,6.9,0.2,10.3,0.5
				c3.5,0.3,5.9,0.6,7.4,0.8c1.5,0.3,4,0.7,7.4,1.2v11.2c-0.3-0.1-1.3-0.3-2.9-0.5c-1.6-0.3-2.9-0.5-3.7-0.6l-3.8-0.5
				c-1.8-0.3-3.3-0.5-4.6-0.6c-1.3-0.1-2.9-0.2-4.7-0.3c-1.8-0.1-3.7-0.1-5.4-0.1c-5.3,0-9.6,0.4-13,1.2c-2,0.5-3.8,1.1-5.4,2
				c-1.6,0.8-2.9,1.8-3.9,2.7s-1.9,2.2-2.6,3.6c-0.7,1.4-1.2,2.7-1.6,3.9c-0.3,1.2-0.6,2.5-0.8,4.2s-0.3,2.9-0.4,3.9
				s-0.1,2.2-0.1,3.6v24.3c0,1.4,0,2.6,0.1,3.6c0.1,1,0.2,2.3,0.4,3.9s0.5,3,0.8,4.2c0.3,1.2,0.8,2.5,1.6,3.9
				c0.7,1.4,1.6,2.6,2.7,3.6s2.4,1.9,3.9,2.7c1.6,0.8,3.4,1.5,5.4,2c3.8,0.8,8.1,1.3,13,1.3c2.2,0.1,4.2,0,6.3-0.1
				c2-0.1,4-0.3,6.1-0.6c2-0.3,3.6-0.5,4.6-0.6c1-0.1,2.6-0.4,4.8-0.8s3.3-0.6,3.5-0.7v11.1c-0.2,0.1-1.1,0.3-2.7,0.6
				c-1.6,0.3-2.7,0.5-3.2,0.6l-3.1,0.5c-1.5,0.3-2.7,0.4-3.7,0.5c-0.9,0.1-2.1,0.2-3.6,0.3c-1.5,0.1-2.9,0.2-4.4,0.3
				c-1.4,0.1-2.9,0.1-4.4,0.1c-5.6,0-11-0.5-16.1-1.6c-3.3-0.8-6.3-1.9-9-3.3c-2.7-1.4-4.8-2.8-6.5-4.3c-1.7-1.5-3.1-3.3-4.4-5.4
				s-2.2-4-2.7-5.6s-1-3.6-1.4-5.9c-0.3-2.3-0.5-4.1-0.6-5.5s-0.1-3.1-0.1-5.1L447.8,444.1z"/>
			<path class="st1" d="M531.9,408.3H545v95.1h-13.1V408.3z"/>
			<path class="st1" d="M564.1,445.2c0-2,0.1-3.8,0.1-5.2c0.1-1.4,0.3-3.3,0.6-5.7c0.3-2.4,0.8-4.4,1.4-6.1s1.5-3.7,2.7-5.8
				c1.2-2.2,2.6-4,4.2-5.5s3.7-2.9,6.3-4.3s5.4-2.5,8.6-3.3c5.9-1.4,11.8-2,17.6-2s11.7,0.7,17.6,2c3.2,0.8,6.1,1.9,8.6,3.3
				s4.6,2.8,6.3,4.4c1.6,1.6,3,3.4,4.2,5.6s2.1,4,2.7,5.7s1,3.7,1.4,6.1c0.3,2.4,0.5,4.2,0.6,5.7c0.1,1.4,0.1,3.1,0.1,5.2v21.6
				c0,2,0,3.7-0.1,5.2c-0.1,1.4-0.3,3.3-0.6,5.7c-0.3,2.4-0.8,4.4-1.4,6.1c-0.6,1.7-1.4,3.6-2.6,5.7c-1.2,2.2-2.5,4-4.2,5.6
				s-3.7,3-6.3,4.4s-5.4,2.5-8.6,3.3c-5.8,1.3-11.7,2-17.6,2c-6,0-11.9-0.7-17.7-2c-3.2-0.8-6.1-1.9-8.6-3.3s-4.6-2.8-6.3-4.3
				s-3-3.3-4.2-5.5c-1.2-2.2-2-4.1-2.6-5.8s-1-3.7-1.4-6.1c-0.3-2.4-0.5-4.2-0.6-5.7s-0.1-3.1-0.1-5.2L564.1,445.2z M577,467.2
				c0,5.2,0.6,9.5,1.8,12.9c1.2,3.5,3,6.2,5.5,8.2s5.4,3.3,8.8,4.1c3.3,0.8,7.4,1.2,12.3,1.2c10.5,0,17.8-2,22-5.9
				c4.2-3.9,6.3-10.8,6.3-20.7v-21.6c-0.1-5.4-0.7-9.7-1.7-13.2c-1-3.5-2.7-6.2-5.2-8.2c-2.4-2-5.3-3.3-8.6-4.1
				c-3.3-0.8-7.6-1.2-12.7-1.2c-10.5,0-17.8,2-21.9,5.8c-4.1,3.9-6.2,10.7-6.2,20.6V467L577,467.2z"/>
			<path class="st1" d="M661.8,489.4c4.2,1.3,9.1,2.4,14.7,3.1c5.6,0.8,9.9,1.2,12.9,1.2c2.9,0,5.5-0.1,7.6-0.3
				c2.2-0.2,4.2-0.6,6.1-1.1c1.9-0.5,3.5-1.2,4.6-2.2c1.2-0.9,2.1-2.1,2.7-3.5c0.7-1.4,1-3.1,1-5c0-2.6-0.4-4.8-1.2-6.6
				c-0.8-1.8-1.8-3.2-3.1-4.3c-1.3-1.1-3.2-2.3-5.6-3.5l-18.6-9.5c-3.5-1.8-6.4-3.5-8.6-5c-2.2-1.5-4.1-3.3-5.9-5.3
				c-1.8-2-3.1-4.3-3.9-6.8c-0.8-2.5-1.2-5.4-1.2-8.8c0-4,0.5-7.5,1.5-10.4c1-2.9,2.4-5.2,4.1-7.1c1.8-1.8,4.1-3.3,7.1-4.3
				s6.1-1.8,9.5-2.2c3.4-0.4,7.5-0.6,12.3-0.6c3.1,0,6.9,0.3,11.5,0.7c4.6,0.5,8.6,1.2,12.1,2.2V422c-2.7-1-6.5-1.9-11.4-2.5
				c-4.9-0.6-8.9-0.9-12.1-0.9c-2.9,0-5.4,0.1-7.4,0.3c-2.1,0.2-4,0.6-5.9,1.2c-1.8,0.6-3.3,1.4-4.4,2.4s-2,2.3-2.6,3.9
				s-1,3.5-1,5.7c0,3.2,1,5.8,2.9,7.8c2,2,5.6,4.3,10.7,7.1l17.5,8.9c4,2,7.2,4,9.5,6.1c2.4,2,4.2,4.6,5.5,7.8c1.3,3.2,2,7.1,2,11.6
				c0,3.8-0.5,7.1-1.6,9.8c-1,2.7-2.5,5-4.4,6.7c-1.9,1.7-4.4,3.1-7.4,4.1c-3.1,1-6.3,1.8-9.8,2.2c-3.5,0.4-7.5,0.6-12.2,0.6
				c-2.9,0-7.1-0.3-12.6-1c-5.5-0.7-10.5-1.6-15.1-2.7L661.8,489.4z"/>
		</g>
	</g>
	<g>
		<g>
			<defs>
				<path id="SVGID_1_" d="M407.5,236.7l-69.4-40.1v-80.2l69.4-40.1l69.4,40.1v80.2L407.5,236.7z M348.1,190.9l59.4,34.3l59.4-34.3
					v-68.6L407.5,88l-59.4,34.3V190.9z"/>
			</defs>
			<clipPath id="SVGID_2_">
				<use xlink:href="#SVGID_1_"  style="overflow:visible;"/>
			</clipPath>
			
				<linearGradient id="SVGID_3_" gradientUnits="userSpaceOnUse" x1="6.1061" y1="574.9006" x2="8.6093" y2="574.9006" gradientTransform="matrix(-96 101 101 96 -56952.5859 -55775.4883)">
				<stop  offset="0" style="stop-color:#DA8956"/>
				<stop  offset="0.1346" style="stop-color:#D58554"/>
				<stop  offset="0.2952" style="stop-color:#C67A4D"/>
				<stop  offset="0.4692" style="stop-color:#AE6843"/>
				<stop  offset="0.6525" style="stop-color:#8D4F34"/>
				<stop  offset="0.8414" style="stop-color:#622F20"/>
				<stop  offset="0.8813" style="stop-color:#58271C"/>
				<stop  offset="1" style="stop-color:#58271C"/>
			</linearGradient>
			<polygon class="st2" points="557,152.5 411,306.1 258,160.6 404,7.1 			"/>
		</g>
		<g>
			<defs>
				<polygon id="SVGID_4_" points="408,162.3 342,124.2 347.1,115.6 408,150.8 467.9,116.2 473,124.9 				"/>
			</defs>
			<clipPath id="SVGID_5_">
				<use xlink:href="#SVGID_4_"  style="overflow:visible;"/>
			</clipPath>
			
				<linearGradient id="SVGID_6_" gradientUnits="userSpaceOnUse" x1="6.1061" y1="574.8802" x2="8.6093" y2="574.8802" gradientTransform="matrix(-96 101 101 96 -56959.3125 -55781.8828)">
				<stop  offset="0" style="stop-color:#DA8956"/>
				<stop  offset="0.1346" style="stop-color:#D58554"/>
				<stop  offset="0.2952" style="stop-color:#C67A4D"/>
				<stop  offset="0.4692" style="stop-color:#AE6843"/>
				<stop  offset="0.6525" style="stop-color:#8D4F34"/>
				<stop  offset="0.8414" style="stop-color:#622F20"/>
				<stop  offset="0.8813" style="stop-color:#58271C"/>
				<stop  offset="1" style="stop-color:#58271C"/>
			</linearGradient>
			<polygon class="st3" points="496.3,137.8 410.8,227.7 318.7,140.1 404.2,50.2 			"/>
		</g>
		<g>
			<defs>
				<polygon id="SVGID_7_" points="407.8,133 366.8,109.3 371.9,100.7 407.8,121.4 443.1,101 448.2,109.7 				"/>
			</defs>
			<clipPath id="SVGID_8_">
				<use xlink:href="#SVGID_7_"  style="overflow:visible;"/>
			</clipPath>
			
				<linearGradient id="SVGID_9_" gradientUnits="userSpaceOnUse" x1="6.1061" y1="574.8005" x2="8.6093" y2="574.8005" gradientTransform="matrix(-96 101 101 96 -56962.3125 -55784.7344)">
				<stop  offset="0" style="stop-color:#DA8956"/>
				<stop  offset="0.1346" style="stop-color:#D58554"/>
				<stop  offset="0.2952" style="stop-color:#C67A4D"/>
				<stop  offset="0.4692" style="stop-color:#AE6843"/>
				<stop  offset="0.6525" style="stop-color:#8D4F34"/>
				<stop  offset="0.8414" style="stop-color:#622F20"/>
				<stop  offset="0.8813" style="stop-color:#58271C"/>
				<stop  offset="1" style="stop-color:#58271C"/>
			</linearGradient>
			<polygon class="st4" points="464.3,116 409.6,173.6 350.7,117.6 405.4,60 			"/>
		</g>
		<g>
			<defs>
				<rect id="SVGID_10_" x="402.5" y="82.2" width="10" height="219.4"/>
			</defs>
			<clipPath id="SVGID_11_">
				<use xlink:href="#SVGID_10_"  style="overflow:visible;"/>
			</clipPath>
			
				<linearGradient id="SVGID_12_" gradientUnits="userSpaceOnUse" x1="6.1061" y1="575.0055" x2="8.6093" y2="575.0055" gradientTransform="matrix(-96 101 101 96 -56945.5391 -55768.793)">
				<stop  offset="0" style="stop-color:#DA8956"/>
				<stop  offset="0.1346" style="stop-color:#D58554"/>
				<stop  offset="0.2952" style="stop-color:#C67A4D"/>
				<stop  offset="0.4692" style="stop-color:#AE6843"/>
				<stop  offset="0.6525" style="stop-color:#8D4F34"/>
				<stop  offset="0.8414" style="stop-color:#622F20"/>
				<stop  offset="0.8813" style="stop-color:#58271C"/>
				<stop  offset="1" style="stop-color:#58271C"/>
			</linearGradient>
			<polygon class="st5" points="522.1,186.3 407.8,306.6 292.9,197.4 407.2,77.2 			"/>
		</g>
		<g>
			<defs>
				<path id="SVGID_13_" d="M301.2,157.7c0-58.6,47.7-106.3,106.3-106.3s106.3,47.7,106.3,106.3c0,58.6-47.7,106.3-106.3,106.3
					S301.2,216.3,301.2,157.7 M291.2,157.7c0,64.1,52.2,116.3,116.3,116.3s116.3-52.2,116.3-116.3c0-64.1-52.2-116.3-116.3-116.3
					S291.2,93.6,291.2,157.7"/>
			</defs>
			<clipPath id="SVGID_14_">
				<use xlink:href="#SVGID_13_"  style="overflow:visible;"/>
			</clipPath>
			
				<linearGradient id="SVGID_15_" gradientUnits="userSpaceOnUse" x1="6.1061" y1="574.9041" x2="8.6093" y2="574.9041" gradientTransform="matrix(-96 101 101 96 -56952.3555 -55775.2695)">
				<stop  offset="0" style="stop-color:#DA8956"/>
				<stop  offset="0.1346" style="stop-color:#D58554"/>
				<stop  offset="0.2952" style="stop-color:#C67A4D"/>
				<stop  offset="0.4692" style="stop-color:#AE6843"/>
				<stop  offset="0.6525" style="stop-color:#8D4F34"/>
				<stop  offset="0.8414" style="stop-color:#622F20"/>
				<stop  offset="0.8813" style="stop-color:#58271C"/>
				<stop  offset="1" style="stop-color:#58271C"/>
			</linearGradient>
			<polygon class="st6" points="639.9,151.8 413.4,390.2 175.1,163.6 401.6,-74.7 			"/>
		</g>
		<g>
			<defs>
				<polygon id="SVGID_16_" points="427.4,176 427.4,187.5 427.5,187.5 474.4,160.4 469.4,151.7 				"/>
			</defs>
			<clipPath id="SVGID_17_">
				<use xlink:href="#SVGID_16_"  style="overflow:visible;"/>
			</clipPath>
			
				<linearGradient id="SVGID_18_" gradientUnits="userSpaceOnUse" x1="6.1061" y1="575.0779" x2="8.6093" y2="575.0779" gradientTransform="matrix(-96 101 101 96 -56941.1484 -55764.6211)">
				<stop  offset="0" style="stop-color:#DA8956"/>
				<stop  offset="0.1346" style="stop-color:#D58554"/>
				<stop  offset="0.2952" style="stop-color:#C67A4D"/>
				<stop  offset="0.4692" style="stop-color:#AE6843"/>
				<stop  offset="0.6525" style="stop-color:#8D4F34"/>
				<stop  offset="0.8414" style="stop-color:#622F20"/>
				<stop  offset="0.8813" style="stop-color:#58271C"/>
				<stop  offset="1" style="stop-color:#58271C"/>
			</linearGradient>
			<polygon class="st7" points="492.3,168.7 452.1,211 409.6,170.5 449.7,128.3 			"/>
		</g>
		<g>
			<defs>
				<polygon id="SVGID_19_" points="340.6,160.4 387.5,187.5 387.5,175.9 345.6,151.7 				"/>
			</defs>
			<clipPath id="SVGID_20_">
				<use xlink:href="#SVGID_19_"  style="overflow:visible;"/>
			</clipPath>
			
				<linearGradient id="SVGID_21_" gradientUnits="userSpaceOnUse" x1="6.1061" y1="574.7984" x2="8.6093" y2="574.7984" gradientTransform="matrix(-96 101 101 96 -56958.5781 -55781.1875)">
				<stop  offset="0" style="stop-color:#DA8956"/>
				<stop  offset="0.1346" style="stop-color:#D58554"/>
				<stop  offset="0.2952" style="stop-color:#C67A4D"/>
				<stop  offset="0.4692" style="stop-color:#AE6843"/>
				<stop  offset="0.6525" style="stop-color:#8D4F34"/>
				<stop  offset="0.8414" style="stop-color:#622F20"/>
				<stop  offset="0.8813" style="stop-color:#58271C"/>
				<stop  offset="1" style="stop-color:#58271C"/>
			</linearGradient>
			<polygon class="st8" points="405.3,168.7 365.2,210.9 322.7,170.5 362.8,128.3 			"/>
		</g>
	</g>
</g>
</svg>
